<svg xmlns="http://www.w3.org/2000/svg" width="512" height="512" viewBox="0 0 512 512"><path d="M331.08 338.205c-22.156 12.594-47.777 19.783-75.084 19.783-27.302 0-52.92-7.182-75.073-19.77C122.153 356.15 77.263 396 64 448h384c-13.255-52-58.146-91.87-116.92-109.795zM255.996 64c-72.87 0-131.945 59.127-131.945 132.013 0 72.887 59.075 131.972 131.946 131.972S387.94 268.9 387.94 196.013C387.94 123.127 328.868 64 255.997 64zm0 230.986c-41.958 0-77.813-25.986-92.21-62.986h184.42c-14.397 37-50.253 62.986-92.21 62.986z"/></svg>