<svg xmlns="http://www.w3.org/2000/svg" width="512" height="512" viewBox="0 0 512 512"><path d="M223.955 212.01s8.054-4.678 19.985-7.01c21.318-4.166 39.472-5.5 47.466 8.5 9.777 17.124 18.402 53.417 16.488 85.5-1 16.75-4.622 22.125-4.622 22.125s-15.333 9.525-47.34 6.875c-34.726-2.875-39.972-15.004-39.972-15.004s4.497-11.305 7.995-42.5c3.497-31.193 0-58.485 0-58.485zM183.984 285c12.546-3.323 23.03-7.19 27.66-8.985.692-4.707 1.28-9.718 1.693-15.015.27-3.46.465-6.754.602-9.896-6.855-2.333-13.535-4.85-28.77-10.104-38.66-13.333-57.146-17-57.146-17s14.24-2.5 42.22 3c19.985 3.93 34.39 9.5 43.946 14.333.77-16-2.477-32.583-2.477-32.583C189.73 168.5 119.53 112 84.368 112 57.888 112 32 180.5 32 256s23.03 144 51.51 144c33.356 0 116.463-80 116.463-80s5.738-12.578 9.88-33.572c-18.79 5.198-63.84 8.572-63.84 8.572s20.983-5.5 37.97-10zM427.632 112c-36.37 0-102.363 56.5-124.348 96.75l-.76 1.375s1.388 2.527 1.872 3.375c3.424 5.996 6.704 14.348 9.442 24.04 8.115-2.804 23.6-8.163 37.523-13.04 19.986-7 34.976-9.5 34.976-9.5s-52.982 23.74-69.605 34.264c2.17 10.16 3.694 21.2 4.22 32.242 5.422 2.216 16.55 6.475 29.913 9.994 18.986 5 40.398 11.5 40.398 11.5s-54.2-5.27-70.113-12.522c-.013 2.862-.095 5.71-.263 8.522-.997 16.72-4.608 22.104-4.622 22.124 7.62 10.543 75 78.876 112.228 78.876 28.48 0 51.51-68.5 51.51-144s-25.888-144-52.368-144z"/></svg>