<svg xmlns="http://www.w3.org/2000/svg" width="512" height="512" viewBox="0 0 512 512"><path d="M0 64v384h512V64H0zm464 191.825c.045 26.724-1.547 47.143-3.797 80.223S441 392.5 401.097 396.168C361.2 399.835 305.37 400.12 256 400c-49 .12-105.198-.165-145.094-3.832-39.903-3.668-56.855-27.04-59.105-60.12s-3.84-53.5-3.795-80.223C47.96 229.1 48.1 211.7 51.803 175.6s23.01-56.266 59.106-59.933S201.84 112 248.703 112H263.302c46.862 0 101.698 0 137.795 3.667S456.5 139.5 460.203 175.6s3.842 53.5 3.797 80.225z"/><path d="M372 283.846v.766c0 18.64-11.58 29.566-27.003 29.566-15.418 0-25.808-12.31-27.284-29.566 0 0-1.335-9.078-1.335-27.298s1.546-29.76 1.546-29.76c2.71-19.472 12.188-29.565 27.607-29.565 15.368 0 27.585 13.26 27.585 33.387.023.086.01.624.01.624h51.54c0-25-6.308-47.555-18.92-61.745-12.616-14.183-31.402-21.273-56.368-21.273-12.483 0-23.93 1.654-34.33 4.942-10.404 3.295-19.376 9.062-26.916 17.29-7.544 8.235-13.396 19.255-17.554 33.06-4.162 13.81-6.242 31.224-6.242 52.247 0 20.52 1.688 37.685 5.072 51.49 3.377 13.81 8.388 24.83 15.018 33.058 6.632 8.234 14.953 13.935 24.967 17.1 10.01 3.163 21.78 4.748 35.305 4.748 28.604 0 49.09-7.258 61.443-21.318C418.486 327.538 424.666 307 424.666 280H372v3.846zM195 283.846v.766c0 18.64-11.58 29.566-27.003 29.566-15.418 0-25.808-12.31-27.284-29.566 0 0-1.335-9.078-1.335-27.298s1.546-29.76 1.546-29.76c2.71-19.472 12.188-29.565 27.607-29.565 15.368 0 27.585 13.26 27.585 33.387.023.086.01.624.01.624h51.54c0-25-6.308-47.555-18.92-61.745-12.616-14.183-31.402-21.273-56.368-21.273-12.483 0-23.93 1.654-34.33 4.942-10.404 3.295-19.376 9.062-26.916 17.29-7.544 8.235-13.396 19.255-17.554 33.06-4.162 13.81-6.242 31.224-6.242 52.247 0 20.52 1.688 37.685 5.072 51.49 3.377 13.81 8.388 24.83 15.018 33.058 6.632 8.234 14.953 13.935 24.967 17.1 10.01 3.163 21.78 4.748 35.305 4.748 28.604 0 49.09-7.258 61.443-21.318C241.486 327.538 247.666 307 247.666 280H195v3.846z"/></svg>