<svg xmlns="http://www.w3.org/2000/svg" width="512" height="512" viewBox="0 0 512 512"><path d="M168 392c-6.143 0-12.285-2.344-16.97-7.03l-112-112c-9.374-9.372-9.374-24.568 0-33.94l112-112c9.372-9.372 24.567-9.372 33.94 0 9.37 9.372 9.37 24.568 0 33.94L89.94 256l95.03 95.03c9.37 9.372 9.37 24.567 0 33.94-4.687 4.686-10.827 7.03-16.97 7.03zM344 392c6.143 0 12.285-2.344 16.97-7.03l112-112c9.374-9.372 9.374-24.568 0-33.94l-112-112c-9.372-9.372-24.567-9.372-33.94 0-9.37 9.372-9.37 24.568 0 33.94L422.06 256l-95.03 95.03c-9.37 9.372-9.37 24.567 0 33.94 4.687 4.686 10.827 7.03 16.97 7.03z"/></svg>