<svg xmlns="http://www.w3.org/2000/svg" width="512" height="512" viewBox="0 0 512 512"><path d="M330.967 284.104c6.48-6.467 6.48-16.95 0-23.422-6.48-6.467-17.342-6.467-23.823 0L272 295.432V176.58c0-9.15-6.84-16.56-16-16.56s-16 7.408-16 16.56v118.852l-35.005-34.75c-6.48-6.467-17.095-6.467-23.573 0-6.482 6.47-6.54 16.955-.057 23.422l63.07 63.023c.02.02.028.037.05.057.725.716 1.513 1.367 2.368 1.945.102.066.2.133.302.2.322.205.65.402.99.586.117.064.23.133.35.193.42.217.85.422 1.292.604.002 0 .004 0 .006.002.405.167.817.308 1.233.442.112.037.222.085.335.118.152.047.308.074.462.115 1.424.386 2.872.59 4.315.59 1.442 0 2.89-.204 4.312-.59.152-.04.31-.067.463-.114.113-.033.224-.08.335-.118.416-.135.83-.275 1.233-.442.003 0 .005 0 .008-.002.44-.183.87-.387 1.29-.604.12-.064.24-.133.36-.198.33-.185.657-.376.974-.58.11-.068.217-.14.323-.21.408-.275.806-.563 1.184-.873l.01-.007c.406-.332.79-.684 1.162-1.05l.074-.067 63.1-63.022z"/><path d="M168 392c-6.143 0-12.285-2.344-16.97-7.03l-112-112c-9.374-9.372-9.374-24.568 0-33.94l112-112c9.372-9.372 24.567-9.372 33.94 0 9.37 9.372 9.37 24.568 0 33.94L89.94 256l95.03 95.03c9.37 9.37 9.37 24.567 0 33.94-4.687 4.686-10.827 7.03-16.97 7.03zM344 392c6.143 0 12.285-2.344 16.97-7.03l112-112c9.374-9.372 9.374-24.568 0-33.94l-112-112c-9.372-9.372-24.567-9.372-33.94 0-9.37 9.372-9.37 24.568 0 33.94L422.06 256l-95.03 95.03c-9.37 9.37-9.37 24.567 0 33.94 4.687 4.686 10.827 7.03 16.97 7.03z"/></svg>