<svg xmlns="http://www.w3.org/2000/svg" width="512" height="512" viewBox="0 0 512 512"><path d="M438.815 395.7L338.51 246.2c-12.8-20.3-19.01-44.4-19.01-70.2V83s12.592-33.25 15.01-42.083c2.295-8.392.51-8.417-15.19-8.417H192.527c-16 0-18.548.01-16.31 8.416C178.632 50 191.5 64.3 191.5 83.5V176c0 25.8-7.285 49.8-20.085 70.2l-49.28 76.5-49.1 72.9c-5.8 9-9.05 20.7-9.05 32.2 0 28 16.346 52.7 63.245 52.7h257.59c46.997 0 63.196-24.7 63.196-52.7-.1-11.5-3.4-23.1-9.2-32.1zM409.218 441c-4.4 4.2-11.602 7.5-24.5 7.5H127.13c-12.8 0-20.8-3.5-25.198-7.7-2.7-2.6-6-7.05-6-13.35 0-5 1.4-10.125 3.9-14.125l99.04-150.392c15.698-25.2 24.63-55.23 24.63-86.932V64.5h64v111.4c0 31.2 7.762 61.3 23.86 87l100.523 150c2.5 4 3.968 9.25 3.968 14.25 0 6.4-3.932 11.25-6.632 13.85z"/><path d="M389.217 411.3c.05.076.1.398 0 .25L307.345 288.5H203.698l-81.07 123.15c-1.5 2.1-2.3 5.176-2.3 7.975 0 7.5 6.29 13.875 13.688 13.875h244c7.5 0 13.6-6.725 13.6-14.125-.002-2.5-1.1-6.074-2.4-8.074zm-87.196-69.6c-1.5-1.5-2.3-3.6-2.3-5.7s.9-4.2 2.3-5.7c1.5-1.5 3.6-2.3 5.6-2.3 2.103 0 4.2.8 5.603 2.3 1.5 1.5 2.3 3.6 2.3 5.7s-.9 4.2-2.3 5.7c-1.5 1.5-3.5 2.3-5.602 2.3-2 0-4.1-.9-5.6-2.3zm46.9 59c-1.4.898-2.9 1.3-4.302 1.3-2.5 0-5.1-1.3-6.598-3.6l-23.5-35.9c-2.4-3.7-1.4-8.7 2.3-11.1 1.4-.9 2.9-1.3 4.4-1.3 2.6 0 5.1 1.3 6.5 3.6l23.5 35.9c2.398 3.7 1.398 8.7-2.3 11.1z"/></svg>