<svg xmlns="http://www.w3.org/2000/svg" width="512" height="512" viewBox="0 0 512 512"><path d="M393.267 238.088l-.23 10.404c-.815 11.65-3.798 31.912-14.103 54.736 3.25-15.208 4.978-30.982 4.978-47.164 0-12.096-.958-23.968-2.8-35.544-15.09-94.9-89.625-169.923-184.137-185.518C185.705 32.285 179.048 32 179.048 32c.238.28.465.562.7.844 39.458 47.18 44.1 96.656 37.744 131.85-2.28 12.63-5.978 23.42-9.99 31.605 0 0 3.358-13.912 3.034-29.72-.293-14.235-3.572-30.007-14.986-38.553 3.497 18.378-.752 33.5-9.12 47.73-24.74 42.05-85.43 73.63-90.43 151.65v3.837c0 53.692 25.624 98.98 68.72 125.012-6.85-12.344-14.965-35.207-8.734-60.15 3.998 23.668 9.95 36.044 20.88 51.755 8.152 11.722 19.103 19.27 33.094 24.935S238.995 480 255.89 480c55.808 0 105.227-28.567 133.844-71.952l.267.06v-.006c16-25.254 26.1-55.5 26.1-88.02 0-29.97-8.504-58.01-22.833-81.994z"/></svg>