<svg xmlns="http://www.w3.org/2000/svg" width="512" height="512" viewBox="0 0 512 512"><path d="M387.47 289.593c-2.25-1.175-4.776-1.796-7.31-1.796-5.955 0-11.357 3.287-14.103 8.588C347.804 331.73 304.605 352 256.004 352c-49.734 0-93.84-20.562-109.757-54.997-2.59-5.59-8.244-9.2-14.407-9.2-2.294 0-4.52.486-6.658 1.464-7.926 3.674-11.397 13.117-7.734 21.057C138.454 355.764 194.135 384 256.004 384c60.34 0 114.604-27.28 138.24-73.055 4.01-7.76.957-17.347-6.775-21.352zM412.793 231.174c-10.48-13.58-23.77-23.174-44.656-23.174-20.887 0-34.062 9.573-44.61 23.117-5.503 7.062-4.526 16.633 3.745 22.207 2.914 1.963 6.347 2.676 9.928 2.676 5.395 0 10.507-2.11 13.67-6.18 3.45-4.434 7.707-9.82 17.268-9.82 9.61 0 13.832 5.36 17.23 9.777 3.178 4.104 8.305 6.223 13.717 6.223 3.58 0 7.007-.708 9.922-2.683 7.55-5.132 9.25-15.067 3.786-22.143zM188.792 231.174C178.312 217.594 165.024 208 144.137 208s-34.063 9.573-44.612 23.117c-5.5 7.062-4.525 16.633 3.747 22.207 2.914 1.963 6.346 2.676 9.927 2.676 5.394 0 10.506-2.11 13.668-6.18 3.45-4.434 7.708-9.82 17.27-9.82 9.61 0 13.83 5.36 17.23 9.777 3.176 4.104 8.303 6.223 13.715 6.223 3.582 0 7.007-.708 9.922-2.683 7.553-5.132 9.252-15.067 3.787-22.143z"/><path d="M256 32C132.288 32 32 132.288 32 256s100.288 224 224 224 224-100.288 224-224S379.712 32 256 32zm135.765 359.765C355.5 428.028 307.285 448 256 448s-99.5-19.972-135.765-56.235C83.972 355.5 64 307.285 64 256s19.972-99.5 56.235-135.765C156.5 83.972 204.715 64 256 64s99.5 19.972 135.765 56.235C428.028 156.5 448 204.715 448 256s-19.972 99.5-56.235 135.765z"/></svg>