<svg xmlns="http://www.w3.org/2000/svg" width="512" height="512" viewBox="0 0 512 512"><path d="M256 32C132.288 32 32 132.288 32 256s100.288 224 224 224 224-100.288 224-224S379.712 32 256 32zM103.272 253.324c-8.272-5.574-9.25-15.145-3.747-22.207C110.075 217.573 123.25 208 144.137 208s34.174 9.593 44.655 23.174c5.464 7.076 3.765 17.01-3.787 22.144-2.915 1.975-6.34 2.683-9.922 2.683-5.412 0-10.54-2.118-13.716-6.222-3.398-4.416-7.62-9.777-17.23-9.777-9.56 0-13.818 5.388-17.27 9.822-3.162 4.07-8.273 6.178-13.668 6.18-3.582-.002-7.014-.715-9.928-2.678zm290.973 57.62C370.607 356.72 316.345 384 256.005 384c-61.87 0-117.55-28.235-138.557-73.677-3.663-7.94-.19-17.383 7.734-21.057 2.137-.978 4.363-1.463 6.658-1.463 6.163 0 11.818 3.61 14.407 9.2C162.164 331.437 206.27 352 256.004 352c48.602 0 91.8-20.27 110.053-55.615 2.746-5.3 8.148-8.588 14.104-8.588 2.533 0 5.06.62 7.31 1.796 7.73 4.005 10.784 13.59 6.775 21.352zm14.76-57.627c-2.914 1.975-6.34 2.683-9.92 2.683-5.413 0-10.54-2.12-13.718-6.223-3.398-4.416-7.62-9.777-17.23-9.777-9.56 0-13.817 5.387-17.268 9.82-3.164 4.07-8.276 6.18-13.67 6.18-3.582 0-7.015-.713-9.93-2.676-8.27-5.574-9.247-15.145-3.745-22.207C334.075 217.573 347.25 208 368.137 208c20.888 0 34.175 9.593 44.656 23.174 5.464 7.076 3.765 17.01-3.787 22.143z"/></svg>