<svg xmlns="http://www.w3.org/2000/svg" width="512" height="512" viewBox="0 0 512 512"><path d="M423.592 132.804C427.006 127.714 429 121.59 429 115c0-17.675-14.33-32-32-32-6.59 0-12.714 1.994-17.805 5.41C344.71 63.014 302.11 48 256 48 141.125 48 48 141.125 48 256c0 114.877 93.125 208 208 208 114.873 0 208-93.123 208-208 0-46.11-15.016-88.71-40.408-123.196zM391.83 391.832c-17.646 17.646-38.19 31.5-61.064 41.174-23.672 10.012-48.826 15.09-74.766 15.09-25.94 0-51.095-5.078-74.767-15.09-22.873-9.675-43.417-23.527-61.064-41.174s-31.5-38.19-41.175-61.064C68.982 307.096 63.905 281.94 63.905 256c0-25.94 5.077-51.095 15.09-74.767 9.673-22.873 23.526-43.417 41.173-61.064s38.19-31.5 61.064-41.175c23.673-10.013 48.828-15.09 74.768-15.09 25.94 0 51.094 5.077 74.766 15.09 13.446 5.686 26.08 12.83 37.802 21.326-2.275 4.4-3.568 9.387-3.568 14.68 0 17.675 14.327 32 32 32 5.293 0 10.28-1.293 14.678-3.568 8.498 11.72 15.64 24.355 21.327 37.8 10.013 23.673 15.09 48.828 15.09 74.768 0 25.94-5.077 51.096-15.09 74.768-9.675 22.873-23.527 43.418-41.175 61.064z"/><circle cx="256.003" cy="256" r="96"/></svg>