<svg xmlns="http://www.w3.org/2000/svg" width="512" height="512" viewBox="0 0 512 512"><path d="M293.25 150.32L265.2 254.9l74.954 75C358.16 309.457 368 283.486 368 256c0-29.916-11.65-58.042-32.805-79.196-12.04-12.04-26.34-20.997-41.945-26.484zM278.068 146.16C270.88 144.733 263.496 144 256 144c-29.916 0-58.042 11.65-79.196 32.805C155.65 197.958 144 226.085 144 256c0 7.468.727 14.824 2.145 21.988L250.3 250.1l27.768-103.94zM150.473 293.697c5.5 15.43 14.404 29.572 26.33 41.498C197.96 356.35 226.084 368 256 368c27.01 0 52.558-9.5 72.835-26.91L253.9 266.2l-103.427 27.497z"/><path d="M448 272.754v-32.008l-33.29-8.703-2.602-13.204 27.594-20.906-12.197-29.608-34.392 4.802-7.498-10.603 17.695-29.708-22.594-22.605-30.19 17.404-10.698-7.302 5.298-35.01-29.492-12.302-21.594 28.308-12.297-2.6L273.045 64h-31.99l-9.198 34.91-12.098 2.4-21.495-29.01-29.592 12.305 4.8 35.71-11.698 7.2-31.292-18.704-22.594 22.607 18.794 31.508-6.698 10.502-35.49-5L72.3 198.033l28.892 21.706-2.4 12.203L64 240.846v32.007l34.69 8.903 2.4 12.503-28.394 21.306 12.297 29.508 34.99-5.002 7.1 11.303-17.896 30.607 22.595 22.605 30.192-18.204 11.196 7.302-4.498 34.31 29.592 12.203 20.595-27.808 13.395 2.5 8.8 33.11h31.99l8.298-33.11 13.597-2.6 20.694 27.106 29.593-12.203-4.998-33.71 10.195-7.4 28.992 16.905 22.595-22.606-16.795-28.907 7.896-11.402 33.79 4.802 12.3-29.508-27.194-20.507 2.7-13.502 33.29-8.604zM256 384c-70.692 0-128-57.307-128-128 0-70.692 57.308-128 128-128 70.692 0 128 57.308 128 128 0 70.693-57.308 128-128 128z"/></svg>