<svg xmlns="http://www.w3.org/2000/svg" width="512" height="512" viewBox="0 0 512 512"><path d="M395.057 228.247c-28.65 0-64.502 7.35-92.66 14.518-.98-3.443-2.32-6.734-4-9.817 24.97-14.84 55.486-34.98 75.732-55.224 39.546-39.547 52.022-68.458 40.44-80.042-11.585-11.583-40.496.893-80.043 40.44-20.225 20.225-40.343 50.698-55.178 75.654-3.083-1.708-6.374-3.083-9.823-4.09 7.156-28.132 14.475-63.896 14.475-92.49C284.002 61.265 272.382 32 256 32s-28.002 29.266-28.002 85.194c0 28.595 7.32 64.36 14.475 92.492-3.45 1.006-6.74 2.38-9.822 4.09-14.834-24.957-34.952-55.43-55.175-75.654-39.548-39.547-68.458-52.024-80.042-40.44-11.584 11.583.894 40.494 40.44 80.04 20.246 20.245 50.762 40.385 75.732 55.225-1.68 3.083-3.02 6.374-4 9.817-28.16-7.168-64.01-14.518-92.66-14.518C61.015 228.246 32 239.618 32 256s29.016 28.252 84.944 28.252c28.697 0 64.613-7.37 92.792-14.55 1.01 3.413 2.384 6.67 4.083 9.723-25.01 14.852-55.646 35.05-75.947 55.35-39.547 39.55-52.023 68.46-40.44 80.044 11.584 11.583 40.495-.896 80.042-40.442 20.323-20.323 40.542-51 55.398-76.024 3.053 1.67 6.31 3.01 9.718 3.995C235.4 330.55 228 366.555 228 395.307c0 55.93 11.62 84.693 28 84.693s28.003-28.765 28.003-84.692c0-28.752-7.4-64.756-14.592-92.96 3.41-.984 6.666-2.323 9.72-3.994 14.854 25.023 35.072 55.7 55.398 76.025 39.547 39.546 68.457 52.023 80.04 40.44s-.893-40.496-40.438-80.044c-20.304-20.302-50.938-40.5-75.947-55.35 1.7-3.054 3.073-6.31 4.083-9.725 28.18 7.18 64.096 14.552 92.792 14.552 55.93 0 84.943-11.62 84.943-28.002s-29.016-28.003-84.943-28.003z"/><path d="M296.467 353.945s7.03 41.06 1.854 75.946c11.68 21.78 26.14 35.254 36.644 35.254 1.75 0 3.432-.324 5.042-.976 11.874-4.797 14.385-24.984 4.855-58.49-24.53-17.674-48.393-51.733-48.393-51.733zM215.497 158.32s-7.747-40.82-1.818-75.712c-13.293-23.51-26.14-35.255-36.645-35.255-1.75 0-3.43.325-5.042.976-11.868 4.794-14.497 23.21-4.87 58.44 21.252 15.98 48.374 51.55 48.374 51.55zM158.306 296.717s-41.308 6.12-75.95 1.852c-27.42 15.504-38.835 30.4-34.276 41.686 2.806 6.944 10.913 10.675 23.842 10.675 9.182 0 22.434-1.558 34.672-5.825 17.405-23.935 51.712-48.388 51.712-48.388zM353.723 215.78s40.778-7.28 75.918-1.85c27.425-15.504 38.84-30.402 34.28-41.685-2.806-6.945-10.914-10.675-23.844-10.675-9.178 0-21.4 1.715-34.654 5.822-18.088 23.774-51.7 48.387-51.7 48.387zM163.135 408.98c-8.42 30.34-5.956 48.938 5.244 53.69 1.673.71 3.436 1.066 5.274 1.066 11.107 0 24.698-13.124 39.528-39.015-4.184-32.22 2.35-70.778 2.35-70.778S194 385.336 163.136 408.98zM348.77 103.87c8.397-31.87 6.096-49.27-5.147-54.044-1.674-.71-3.438-1.066-5.274-1.066-11.106 0-26.208 14.287-39.528 39.013 4.514 22.894-2.393 71.053-2.393 71.053s23.237-34.326 52.34-54.956zM87.524 213.432c29.726-3.932 70.688 2.336 70.688 2.336s-37.212-28.7-55.003-52.4c-10.21-3.868-22.493-5.002-30.753-5.002-12.267 0-20.042 3.573-22.88 10.26-5.005 11.793 9.97 29.986 37.947 44.806zM424.477 299.066c-25.307 5.6-70.78-2.35-70.78-2.35s34.638 25.615 55.014 52.393c11.96 4.222 22.556 5.02 30.834 5.02 12.266 0 20.04-3.572 22.88-10.26 5.004-11.79-8.14-28.07-37.947-44.804z"/></svg>