<svg xmlns="http://www.w3.org/2000/svg" width="512" height="512" viewBox="0 0 512 512"><path d="M448 288c-15.268 0-28.03 10.695-31.223 25h-59.004l-30.18-90.896c-1.106-3.33-4.247-5.543-7.76-5.478-3.508.072-6.56 2.422-7.524 5.795l-54.243 189.32-58.175-349.055c-.624-3.74-3.787-6.528-7.576-6.68-3.81-.138-7.16 2.383-8.078 6.062L121.748 313H32v16h96c3.674 0 6.875-2.502 7.763-6.066l54.685-219.59 57.66 345.972c.616 3.688 3.704 6.46 7.438 6.672.153.01.307.013.46.013 3.548 0 6.698-2.35 7.686-5.796l56.872-198.496 23.845 71.813c1.086 3.272 4.145 5.48 7.592 5.48h65.292c3.89 13.29 16.16 23 30.708 23 17.674 0 32-14.327 32-32S465.674 288 448 288z"/></svg>