<svg xmlns="http://www.w3.org/2000/svg" width="512" height="512" viewBox="0 0 512 512"><path d="M395.057 284.252c55.93 0 84.943-11.62 84.943-28.002s-29.016-28.003-84.943-28.003c-28.732 0-64.708 7.39-92.902 14.578-.975-3.42-2.305-6.688-3.973-9.75 25.01-14.852 55.645-35.05 75.947-55.353 39.546-39.547 52.022-68.458 40.44-80.042-2.748-2.748-6.473-4.142-11.08-4.142-14.818 0-38.796 14.415-68.963 44.582-20.282 20.282-40.46 50.873-55.307 75.87-3.062-1.697-6.33-3.063-9.755-4.063 7.175-28.17 14.535-64.06 14.535-92.735C284.002 61.266 272.382 32 256 32s-28.002 29.266-28.002 85.194c0 28.676 7.362 64.565 14.536 92.735-3.425 1-6.693 2.364-9.755 4.06-14.848-24.995-35.024-55.586-55.306-75.868C147.31 107.957 123.33 93.54 108.51 93.54c-4.61 0-8.33 1.394-11.08 4.142-11.583 11.583.895 40.494 40.44 80.04 20.304 20.304 50.94 40.502 75.948 55.354-1.668 3.062-3 6.33-3.974 9.75-28.194-7.188-64.17-14.578-92.9-14.578C61.015 228.248 32 239.618 32 256s29.016 28.252 84.944 28.252c28.777 0 64.82-7.413 93.034-14.61 1.003 3.39 2.368 6.624 4.055 9.655-25.048 14.863-55.8 35.12-76.16 55.48-39.548 39.547-52.024 68.458-40.44 80.042 2.747 2.747 6.47 4.14 11.077 4.14 14.82 0 38.796-14.414 68.963-44.582 20.382-20.38 40.66-51.177 55.526-76.238 3.03 1.657 6.266 2.988 9.65 3.967-7.21 28.238-14.654 64.367-14.654 93.2C227.998 451.235 239.618 480 256 480s28.002-28.766 28.002-84.693c0-28.834-7.44-64.963-14.652-93.2 3.385-.98 6.618-2.31 9.65-3.968 14.867 25.06 35.145 55.856 55.527 76.238 30.164 30.165 54.144 44.582 68.963 44.582 4.608 0 8.33-1.394 11.078-4.142 11.584-11.584-.894-40.495-40.44-80.043-20.36-20.36-51.113-40.615-76.16-55.48 1.687-3.03 3.052-6.265 4.054-9.655 28.215 7.2 64.258 14.612 93.035 14.612zm-75.065-29.31c30.144-7.015 55.893-10.695 75.064-10.695 21.33 0 39.453 1.806 52.41 5.222 9.705 2.558 14.005 5.316 15.736 6.78-1.73 1.463-6.03 4.22-15.736 6.78-12.958 3.415-31.08 5.222-52.41 5.222-19.176 0-44.927-3.68-75.075-10.695l.012-2.616zm25.85-105.506c35.38-35.383 52.68-39.412 56.817-39.846-.212 2.305-1.344 7.326-6.405 15.99-6.786 11.62-18.35 25.74-33.44 40.83-13.532 13.533-34.3 29.11-60.512 45.437-.62-.648-1.25-1.283-1.895-1.904 16.324-26.214 31.9-46.975 45.433-60.507zm-136.144 62.41c-26.213-16.326-46.98-31.904-60.512-45.437-15.09-15.092-26.653-29.21-33.44-40.83-5.06-8.664-6.193-13.686-6.403-15.99 4.138.434 21.436 4.462 56.818 39.844 13.534 13.533 29.11 34.295 45.434 60.507-.646.623-1.278 1.258-1.896 1.906zm-92.754 56.406c-21.34 0-39.483-1.845-52.47-5.335-9.69-2.604-13.962-5.394-15.676-6.87 1.75-1.45 6.077-4.177 15.796-6.69 12.927-3.342 31.03-5.11 52.35-5.11 19.173 0 44.923 3.68 75.065 10.695l.01 2.615c-30.15 7.015-55.9 10.695-75.076 10.695zm49.216 94.812c-35.383 35.382-52.68 39.41-56.818 39.846.21-2.305 1.343-7.326 6.404-15.992 6.786-11.62 18.35-25.736 33.44-40.828 13.586-13.586 34.456-29.23 60.814-45.625.584.604 1.18 1.197 1.79 1.78-16.396 26.36-32.04 47.23-45.63 60.82zm135.84-62.6c26.356 16.396 47.227 32.038 60.814 45.626 15.09 15.092 26.653 29.21 33.44 40.828 5.06 8.666 6.192 13.688 6.402 15.992-4.138-.436-21.436-4.464-56.817-39.846-13.59-13.59-29.235-34.463-45.63-60.82.608-.58 1.205-1.176 1.79-1.78zM249.222 64.68c2.548-9.703 5.297-14.055 6.778-15.834 1.48 1.78 4.23 6.13 6.777 15.834 3.418 13.015 5.225 31.174 5.225 52.516 0 19.117-3.66 44.78-10.637 74.82h-2.73c-6.977-30.04-10.638-55.703-10.638-74.82 0-21.34 1.807-39.5 5.225-52.516zm13.56 382.934c-2.57 9.707-5.34 13.954-6.782 15.636-1.444-1.682-4.212-5.93-6.782-15.636-3.415-12.9-5.22-30.988-5.22-52.308 0-19.228 3.7-45.066 10.752-75.316h2.5c7.052 30.25 10.752 56.09 10.752 75.316 0 21.32-1.805 39.407-5.22 52.308zM256 288c-17.673 0-32-14.327-32-32s14.327-32 32-32 32 14.327 32 32-14.327 32-32 32z"/><path d="M344.86 405.678c-24.53-17.674-48.394-51.732-48.394-51.732s7.03 41.06 1.854 75.946c11.678 21.78 26.14 35.253 36.643 35.253 1.75 0 3.432-.324 5.042-.976 11.874-4.798 14.385-24.985 4.855-58.492zm-11.122 42.888c-2.738-1.46-9.407-6.37-18.992-22.27.688-7.872 1.098-16.337 1.22-25.282 5.01 4.88 9.946 9.437 14.746 13.613 5.104 19.78 4.242 30.152 3.026 33.94zM213.68 82.608c-13.293-23.51-26.14-35.255-36.645-35.255-1.75 0-3.43.325-5.042.976-11.868 4.794-14.497 23.21-4.87 58.44 21.252 15.98 48.374 51.55 48.374 51.55s-7.747-40.82-1.818-75.712zm-17.642 28.76c-5-4.855-9.943-9.397-14.77-13.573-5.083-19.73-4.222-30.082-3.007-33.863 2.738 1.46 9.408 6.37 18.995 22.27-.687 7.838-1.094 16.264-1.217 25.167zM82.357 298.568C54.935 314.073 43.52 328.97 48.08 340.255c2.806 6.944 10.913 10.675 23.842 10.675 9.182 0 22.434-1.56 34.672-5.826 17.405-23.934 51.712-48.387 51.712-48.387s-41.307 6.12-75.95 1.85zm15.28 32.388c-10.088 2.606-18.91 3.974-25.716 3.974-4.09 0-6.732-.502-8.222-.97 1.477-2.755 6.407-9.41 22.253-18.966 7.873.69 16.34 1.1 25.285 1.22-4.87 5.004-9.42 9.936-13.598 14.742zM463.92 172.245c-2.806-6.945-10.914-10.675-23.844-10.675-9.178 0-21.4 1.715-34.654 5.822-18.088 23.774-51.7 48.387-51.7 48.387s40.78-7.28 75.92-1.85c27.422-15.504 38.837-30.402 34.278-41.685zm-37.873 25.26c-7.867-.69-16.327-1.098-25.267-1.22 4.87-5.003 9.42-9.938 13.6-14.748 10.08-2.602 18.895-3.968 25.697-3.968 4.093 0 6.733.5 8.225.97-1.478 2.754-6.41 9.41-22.255 18.964zM163.135 408.98c-8.42 30.34-5.956 48.938 5.244 53.69 1.673.71 3.436 1.066 5.274 1.066 11.107 0 24.698-13.124 39.528-39.015-4.184-32.22 2.35-70.778 2.35-70.778S194 385.336 163.136 408.98zm11.846 38.227c-.903-2.966-2.146-11.15 2.313-29.16 6.048-5.078 12.323-10.78 18.743-17.03.095 6.978.366 13.686.81 20.038-10.38 17.605-18.326 24.335-21.865 26.152zM343.622 49.826c-1.674-.71-3.438-1.066-5.274-1.066-11.105 0-26.207 14.287-39.527 39.013 4.515 22.894-2.392 71.053-2.392 71.053s23.24-34.326 52.342-54.956c8.397-31.87 6.095-49.27-5.148-54.044zm-8.995 44.955c-6.03 5.052-12.277 10.72-18.66 16.932-.092-7.062-.364-13.846-.812-20.27 10.38-17.606 18.327-24.335 21.864-26.152.91 2.984 2.166 11.25-2.393 29.49zM103.21 163.367c-10.21-3.867-22.493-5-30.753-5-12.267 0-20.042 3.572-22.88 10.26-5.005 11.792 9.97 29.985 37.947 44.805 29.726-3.932 70.688 2.336 70.688 2.336s-37.212-28.7-55.003-52.4zm-38.176 11.848c1.38-.414 3.775-.848 7.424-.848 5.815 0 13.242 1.088 21.687 3.165 5.077 6.05 10.78 12.33 17.034 18.754-6.96.096-13.65.367-19.985.81-17.632-10.396-24.355-18.35-26.16-21.88zM424.477 299.066c-25.307 5.6-70.78-2.35-70.78-2.35s34.638 25.615 55.014 52.393c11.96 4.222 22.556 5.02 30.834 5.02 12.266 0 20.04-3.572 22.88-10.26 5.004-11.79-8.14-28.07-37.947-44.804zm15.065 39.066c-5.833 0-13.287-1.095-21.765-3.185-5.078-6.053-10.774-12.326-17.013-18.734 6.98-.095 13.688-.365 20.04-.81 17.632 10.395 24.355 18.35 26.16 21.88-1.38.414-3.774.85-7.422.85z"/></svg>