<svg xmlns="http://www.w3.org/2000/svg" width="512" height="512" viewBox="0 0 512 512"><path d="M366.195 212.122C367.38 205.594 368 198.87 368 192c0-61.856-50.144-112-112-112s-112 50.144-112 112c0 6.87.62 13.594 1.805 20.122C98.615 225.302 64 268.606 64 320c0 61.856 50.144 112 112 112 31.342 0 59.67-12.878 80-33.626C276.33 419.122 304.658 432 336 432c61.856 0 112-50.144 112-112 0-51.394-34.616-94.697-81.805-107.878zM160 192c0-52.935 43.064-96 96-96s96 43.065 96 96c0 5.776-.512 11.435-1.494 16.933-4.75-.614-9.59-.934-14.506-.934-31.342 0-59.67 12.878-80 33.626C235.67 220.878 207.342 208 176 208c-4.916 0-9.757.318-14.506.933C160.512 203.435 160 197.776 160 192zm112 128c0 19.58-5.895 37.806-16 53.006-10.104-15.2-16-33.426-16-53.006 0-5.776.512-11.435 1.494-16.933 4.75.614 9.59.934 14.506.934s9.757-.318 14.506-.933C271.488 308.565 272 314.224 272 320zm-16-32c-3.484 0-6.925-.19-10.314-.555 2.626-7.262 6.105-14.12 10.314-20.45 4.21 6.33 7.688 13.188 10.314 20.45-3.39.365-6.83.556-10.314.556zm-26.21-3.636c-29.755-8.455-53.665-30.937-64.104-59.81 3.39-.364 6.83-.556 10.314-.556 27.353 0 52.07 11.5 69.572 29.917-6.725 9.19-12.088 19.436-15.78 30.45zm36.638-30.447C283.93 235.5 308.648 224 336 224c3.484 0 6.925.19 10.314.555-10.44 28.873-34.35 51.354-64.105 59.81-3.694-11.014-9.057-21.26-15.782-30.448zM176 416c-52.936 0-96-43.064-96-96 0-43.852 29.554-80.93 69.79-92.364 11.733 34.983 40.266 62.257 76.015 72.243C224.62 306.405 224 313.13 224 320c0 24.717 8.012 47.56 21.572 66.084C228.07 404.5 203.352 416 176 416zm160 0c-27.354 0-52.07-11.5-69.572-29.917C279.988 367.56 288 344.717 288 320c0-6.87-.62-13.594-1.805-20.12 35.75-9.987 64.28-37.26 76.014-72.244C402.445 239.07 432 276.15 432 320c0 52.936-43.064 96-96 96z"/></svg>