<svg id="Layer_1" xmlns="http://www.w3.org/2000/svg" width="512" height="512" viewBox="0 0 512 512"><style><![CDATA[
	.st0{fill:#010101;}
]]></style><path class="st0" d="M247 96h18v56h-18zM247 356h18v60h-18zM360 247h56v18h-56zM96 247h60v18H96zM370.26 352.286l-11.88 11.88-33.798-33.8 11.88-11.88zM193.544 175.48l-11.88 11.88-33.87-33.87 11.88-11.88zM358.335 141.745l11.88 11.88-33.8 33.8-11.88-11.88zM181.563 318.404l11.878 11.88-33.874 33.866-11.878-11.88zM256 331.8c-41.8 0-75.8-34-75.8-75.8s34-75.8 75.8-75.8 75.8 34 75.8 75.8-34 75.8-75.8 75.8zm0-134.7c-32.5 0-58.9 26.4-58.9 58.9s26.4 58.9 58.9 58.9 58.9-26.4 58.9-58.9-26.4-58.9-58.9-58.9z"/></svg>