<svg xmlns="http://www.w3.org/2000/svg" width="512" height="512" viewBox="0 0 512 512"><path d="M362.12 207.146L352 194.854 413.784 144h-46.117c-93.327 0-129.147 74.51-163.787 138.832-1.62 3.008-3.233 6.004-4.846 8.98-19.836 36.606-40.98 61.24-64.64 75.313C120.574 375.345 101.4 384 64 384v-16.25c47.937 0 83.098-13.673 120.966-83.56 1.606-2.966 3.214-5.95 4.827-8.945C224.943 209.977 264.783 128 367.667 128h46.28L352 76.146 362.12 64 448 136l-85.88 71.146z"/><path d="M199.034 220.19c-19.836-36.608-40.98-61.243-64.64-75.315C120.574 136.655 101.4 128 64 128v16.25c47.937 0 83.098 13.673 120.966 83.56 1.606 2.965 3.214 5.95 4.827 8.945.438.812.875 1.627 1.314 2.444 3.01-5.44 6.107-10.918 9.34-16.395-.47-.87-.943-1.75-1.413-2.616zM362.12 304.854L352 317.146 413.784 368h-46.117c-72.693 0-110.496-45.207-140.028-95.592-1.77 3.275-3.526 6.55-5.274 9.814-1.175 2.192-2.344 4.37-3.513 6.545C249.62 338.777 291.253 384 367.667 384h46.28L352 435.854 362.12 448 448 376l-85.88-71.146z"/></svg>