<svg xmlns="http://www.w3.org/2000/svg" width="512" height="512" viewBox="0 0 512 512"><path d="M416 128c-18.863 4.163-36.75 8.786-53.697 13.753-40.457 11.858-75.51 25.693-105.445 40.015-19.27 9.22-26.236 13.393-51.522 27.86C147 243 112 278.925 112 351.887S167.635 480 256 480s144-55.148 144-128.11S339 224 416 128zM96 96c41.475 47.08 44.624 103.89 39.382 144.74 12.772-11.273 31.177-25.733 56.144-41.388 6.442-4.04 13.312-8.158 20.645-12.322 11.58-6.575 23.54-12.822 35.835-18.765-9.113-10.898-22.07-20.606-36.63-29.095C162.63 110.756 96 96 96 96zM352 64s-78.623 2.32-130.68 62.47c16.628 9.902 29.734 20.502 38.958 31.532l2.724 3.257c37.152-16.795 88.13-34.086 120.998-42.01C377.617 95.827 352 64 352 64zM176 32c-15.256 22.406-25.684 45.3-30.336 59.997 21.11 6.355 35.475 13.215 61.39 26.574 9.504-11.4 20.414-21.625 32.604-30.542C210.342 47.655 176 32 176 32z"/></svg>