<svg xmlns="http://www.w3.org/2000/svg" width="512" height="512" viewBox="0 0 512 512"><path d="M223.9 32c25.69 145-96.733 142-95.896 288 .686 119.51 104.975 160 128.143 160 23.166 0 113.88-26 126.93-160C393.712 210.816 310.573 96 223.9 32zm32.247 440s-40.7-35.816-40.7-80c0-44.183 40.554-80 40.554-80s40.333 35.817 40.333 80c0 44.184-40.186 80-40.186 80zm111.006-153.55c-2.823 28.987-9.704 54.522-20.45 75.893-8.75 17.397-20.084 32.114-33.692 43.743-6.52 5.575-13.254 10.115-19.77 13.75 10.04-15.94 19.093-36.72 19.093-59.836 0-50.788-43.842-90.307-45.708-91.963l-10.594-9.41-10.62 9.38c-1.877 1.658-45.963 41.18-45.963 91.993 0 21.842 8.168 41.594 17.636 57.152-7.38-4.326-15.215-9.748-22.986-16.45-14.688-12.67-26.365-27.61-34.708-44.403-10.064-20.256-15.24-43.266-15.384-68.392-.367-63.986 24.09-95.746 49.983-129.37 24.567-31.902 49.828-64.7 49.457-122.112 32.513 28.827 61.257 63.03 82.822 98.877 31.306 52.047 45.445 104.312 40.883 151.146z"/></svg>