<svg xmlns="http://www.w3.org/2000/svg" width="512" height="512" viewBox="0 0 512 512"><path d="M256 48c28.087 0 55.325 5.497 80.958 16.34 24.767 10.475 47.013 25.475 66.12 44.582s34.107 41.354 44.583 66.12C458.504 200.675 464 227.912 464 256s-5.497 55.325-16.34 80.958c-10.475 24.767-25.475 47.013-44.582 66.12s-41.354 34.107-66.12 44.583C311.325 458.504 284.088 464 256 464s-55.325-5.497-80.958-16.34c-24.767-10.475-47.013-25.475-66.12-44.582s-34.107-41.354-44.583-66.12C53.496 311.325 48 284.088 48 256s5.497-55.325 16.34-80.958c10.475-24.767 25.475-47.013 44.582-66.12s41.354-34.107 66.12-44.583C200.675 53.496 227.912 48 256 48m0-16C132.288 32 32 132.288 32 256s100.288 224 224 224 224-100.288 224-224S379.712 32 256 32z"/><path d="M107.776 320c-25.252 0-41.168-18.448-41.902-19.317-2.84-3.36-2.4-8.37.982-11.192 3.374-2.812 8.4-2.387 11.248.95.604.7 14.606 16.596 35.606 13.185 12.104-1.964 28.08-25.68 38.652-41.376 4.25-6.312 7.922-11.762 11.215-15.857 16.773-20.865 33.9-23.333 45.325-21.726 24.14 3.394 44.358 27.498 53.69 49.882 7.453 17.883 19.04 28.255 32.627 29.207 15.407 1.06 31.538-9.885 43.104-29.336 1.228-2.063 2.562-4.495 3.978-7.07 9.482-17.26 23.814-43.35 51.75-43.35 31.146 0 51.957 34.287 52.828 35.747 2.252 3.774.996 8.648-2.806 10.885-3.8 2.237-8.708.988-10.96-2.786-.037-.062-4.493-7.413-11.86-14.568-6.285-6.107-16.107-13.387-27.202-13.387-18.438 0-29.12 19.446-37.705 35.07-1.48 2.697-2.88 5.244-4.245 7.54-14.718 24.75-36.4 38.634-58.01 37.107-19.95-1.398-36.39-15.242-46.284-38.98-10.013-24.02-28.28-38.417-41.15-40.228-10.6-1.495-20.894 3.86-30.577 15.905-2.87 3.573-6.538 9.017-10.42 14.78-13.55 20.113-30.41 45.145-49.37 48.222-2.94.477-5.783.693-8.514.693z"/></svg>