<svg xmlns="http://www.w3.org/2000/svg" width="512" height="512" viewBox="0 0 512 512"><path d="M368 170.085c0-21.022-.973-88.554-19.308-125.013C344.244 36.228 336.25 32 317 32H195c-19.25 0-27.245 4.197-31.692 13.04C144.973 81.5 144 149.25 144 170.273c0 98 32 100.353 32 180.853 0 39.5-16 71.402-16 99.402 0 27 9 29.473 32 29.473h128c23 0 32-2.535 32-29.535 0-28-16-59.715-16-99.215 0-80.5 32-83.165 32-181.165zM177.602 51.983c.778-1.546 1.34-1.763 2.53-2.295 1.977-.884 6.16-1.688 14.87-1.688h121.997c8.707 0 12.892.803 14.868 1.687 1.19.532 1.752.872 2.53 2.418 8.03 15.967 13.6 42.61 16.105 75.896H161.496c2.505-33.347 8.076-60.05 16.106-76.017z"/></svg>