<svg xmlns="http://www.w3.org/2000/svg" width="512" height="512" viewBox="0 0 512 512"><path d="M256 48c-8.044 0-15.975.473-23.782 1.36C128.555 61.167 48 149.18 48 256c0 114.863 93.137 208 208 208 106.827 0 194.833-80.553 206.638-184.218.89-7.805 1.362-15.737 1.362-23.782 0-114.863-93.13-208-208-208zm3.94 398.614c-.54-8.693-1.606-17.305-3.21-25.804l-21.51 6.896-4.886-15.234 22.812-7.314c-2.183-8.056-4.856-15.994-8.02-23.794-1.943-4.794-4.06-9.497-6.34-14.105l-19.465 13.185-8.97-13.247 20.743-14.054c-7.416-12.43-16.15-24.057-26.12-34.803l-16.85 16.854-11.314-11.313 16.85-16.85c-10.44-9.69-21.72-18.203-33.756-25.48l-14.216 20.987-13.247-8.973 13.404-19.788c-4.96-2.49-10.027-4.8-15.206-6.9-7.455-3.02-15.038-5.59-22.725-7.717l-7.5 23.39-15.236-4.884 7.115-22.192c-8.856-1.723-17.835-2.853-26.904-3.412.11-5.373.438-10.695.984-15.953 10.34.646 20.64 1.997 30.827 4.067l7.517-23.454 15.237 4.886-7.16 22.327c14.434 4.027 28.543 9.52 42.09 16.494l13.45-19.853 13.248 8.973-12.7 18.748c12.712 7.754 24.815 16.892 36.1 27.41l17.082-17.08 11.314 11.313-17.083 17.083c10.81 11.595 20.156 24.055 28.044 37.15l18.998-12.868 8.973 13.248-20.182 13.67c6.878 13.546 12.29 27.642 16.232 42.058l22.92-7.348 4.884 15.236-24.122 7.734c1.947 9.828 3.23 19.76 3.854 29.727-5.26.547-10.582.874-15.957.984zm151.02-171.32l-8.528 26.603-15.236-4.885 8.174-25.493c-14.124-3.965-27.94-9.33-41.218-16.117l-15.335 22.64-13.248-8.972 14.563-21.498c-12.912-7.826-25.2-17.077-36.644-27.746l-19.206 19.204-11.312-11.314 19.202-19.203c-10.38-11.135-19.427-23.062-27.114-35.59l-21.248 14.393-8.974-13.248 22.335-15.127c-6.88-13.277-12.34-27.098-16.384-41.24l-24.92 7.99-4.884-15.237 25.95-8.32c-2.446-11.664-3.942-23.483-4.52-35.338 5.188-.644 10.445-1.068 15.753-1.284.506 10.744 1.858 21.335 3.97 31.808l19.745-6.36 4.907 15.213-20.79 6.66c2.052 7.217 4.492 14.337 7.334 21.347 2.176 5.363 4.578 10.603 7.174 15.73l17.315-11.728 8.973 13.245-18.477 12.516c7.21 11.847 15.62 22.958 25.175 33.255l14.73-14.73 11.313 11.312-14.732 14.73c10.602 9.837 22.062 18.464 34.302 25.814l12.352-18.234 13.248 8.973-11.512 16.993c4.777 2.383 9.656 4.59 14.635 6.608 7.355 2.983 14.838 5.522 22.422 7.632l6.484-20.22 15.233 4.885L415.864 260c10.116 1.984 20.286 3.31 30.626 3.824-.214 5.312-.642 10.572-1.284 15.768-11.486-.564-22.937-1.985-34.245-4.3z"/></svg>