<svg xmlns="http://www.w3.org/2000/svg" width="512" height="512" viewBox="0 0 512 512"><path d="M379.77 153.43c-29.778 55.587-17.605 99.505-6.646 139.04C378.717 312.648 384 331.708 384 351.89c0 15.896-2.956 30.872-8.785 44.51-5.727 13.395-14.104 25.21-24.898 35.12C327.17 452.767 294.555 464 256 464s-71.17-11.232-94.316-32.48c-10.795-9.91-19.172-21.726-24.898-35.12-5.83-13.638-8.785-28.613-8.785-44.51 0-31.65 6.92-56 21.776-76.627 13.06-18.134 32.646-34.094 63.505-51.75l6.507-3.724c20.197-11.57 27-15.468 43.976-23.59 31.845-15.233 66.513-28.386 103.04-39.093 4.285-1.256 8.61-2.482 12.966-3.676M416 128c-18.863 4.163-36.75 8.786-53.697 13.753-40.457 11.858-75.51 25.693-105.445 40.015-19.27 9.22-26.236 13.393-51.522 27.86C147 243 112 278.925 112 351.887S167.635 480 256 480s144-55.148 144-128.11S339 224 416 128zM133.516 123.147c21.432 6.955 47.724 16.977 69.8 29.846 6.384 3.723 12.09 7.493 17.09 11.29-5.503 2.906-10.894 5.856-16.137 8.834-7.213 4.096-14.36 8.362-21.244 12.68-10.484 6.573-20.435 13.307-29.79 20.155-.6-25.918-5.68-54.802-19.72-82.805M96 96c41.475 47.08 44.624 103.89 39.382 144.74 12.772-11.273 31.177-25.733 56.144-41.388 6.442-4.04 13.312-8.158 20.645-12.322 11.58-6.575 23.54-12.822 35.835-18.765-9.113-10.898-22.07-20.606-36.63-29.095C162.63 110.756 96 96 96 96zM344.63 80.697c5.308 7.227 12.392 17.66 17.66 27.726-29.864 8.433-65.995 21.145-94.968 33.476-5.963-6.236-12.982-12.295-21.006-18.136 17.437-15.757 38.773-27.668 63.652-35.506 14.55-4.583 27.048-6.646 34.66-7.56M352 64s-78.623 2.32-130.68 62.47c16.628 9.902 29.734 20.502 38.958 31.532l2.724 3.257c37.152-16.795 88.13-34.086 120.998-42.01C377.617 95.827 352 64 352 64zM181.23 53.532c9.24 6.122 22.68 16.48 35.998 31.924-4.85 4.2-9.487 8.623-13.888 13.247-14.024-7.088-24.95-12.192-36.826-16.602 3.66-8.47 8.58-18.312 14.715-28.568M176 32c-15.256 22.406-25.684 45.3-30.336 59.997 21.11 6.355 35.475 13.215 61.39 26.574 9.504-11.4 20.414-21.625 32.604-30.542C210.342 47.655 176 32 176 32z"/></svg>