<svg xmlns="http://www.w3.org/2000/svg" width="512" height="512" viewBox="0 0 512 512"><path d="M264 308.988c0-21.975 20.458-38.674 40.247-54.824 7.907-6.453 15.37-12.547 21.52-18.962C352.312 207.505 352 183.458 352 164.144V160c0-44.25-30.816-124.558-32.02-128H192c-1.203 3.442-32 83.5-32 128v4.144c0 19.273-.323 43.36 26.225 71.06 6.148 6.414 13.617 12.508 21.523 18.96 19.79 16.15 40.252 32.85 40.252 54.825V464h-72v16h160v-16h-72V308.988zM202.73 48H309.25c5.36 15.99 19.51 62.712 24.837 96H177.894c5.327-33.288 19.476-80.01 24.835-96z"/></svg>