<svg xmlns="http://www.w3.org/2000/svg" width="512" height="512" viewBox="0 0 512 512"><path d="M473.152 136.58L368.594 66.307c-4.644-3.076-10.365-3.076-15.03 0l-97.095 65.195-97.11-65.195c-4.643-3.076-10.444-3.076-15.062 0L39.344 136.58c-4.4 2.95-7.344 8.272-7.344 14.05V431.6c0 5.904 3.07 11.347 7.663 14.27 4.62 2.878 10.382 2.83 14.904-.222l97.188-65.197 97.18 65.198c4.667 3.1 10.44 3.1 15.085 0l97.158-65.197 97.15 65.198c2.312 1.55 4.913 2.353 7.54 2.353 2.454 0 4.708-.746 6.968-2.13 4.594-2.923 7.165-8.365 7.165-14.27V150.63c0-5.778-2.425-11.1-6.848-14.05zM135 353.248l-71 49.404v-241.75l71-49.428v241.774zm32-.482v-122.7c1.167.756 2.31 1.526 3.39 2.3l9.332-12.995c-3.904-2.803-8.292-5.5-12.722-7.704V110.992l73 48.992v108.574c-5.372-1.855-10.586-4.37-15.893-7.682l-8.47 13.574c6.847 4.273 13.62 7.467 20.703 9.765L240 272.93v128.805l-73-48.97zm105 48.968V288.37c.35-.022.693-.03 1.043-.055 2.91-.198 5.777-.517 8.518-.946l-2.478-15.808c-2.268.355-4.65.62-7.082.786V159.984l73-48.992V229.78l-4.844-4.372c-2.997 3.32-5.833 6.575-8.575 9.725-1.805 2.073-3.577 4.108-5.338 6.095l11.974 10.613c1.79-2.02 3.595-4.09 5.43-6.2l1.355-1.548v108.675l-73 48.967zm176-.082l-71-48.438v-136.91c3.785-1.715 7.68-2.992 11.64-3.792l-3.167-15.683c-2.858.576-5.687 1.338-8.473 2.28v-87.67l71 48.46v241.752z"/><path d="M129.285 221.11c2.218-1.194-1.353-1.07 1.012-1.836l-4.928-15.222c-3.283 1.062-6.503 2.44-9.572 4.093-3.824 2.062-7.745 4.916-11.34 8.253l10.89 11.724c2.615-2.428 11.29-5.584 13.937-7.01zM296.802 266.127l6.985 14.395c6.596-3.2 12.842-7.445 19.095-12.974l-10.6-11.987c-5.147 4.553-10.21 8.01-15.48 10.567zM99.364 256.006c1.893-5.926 3.528-11.044 7.13-16.304l-13.205-9.037c-4.925 7.194-7.082 13.944-9.168 20.47l-.242.76 15.238 4.878.246-.767zM198.31 237.753c-1.006-1.204-2.013-2.408-3.03-3.603l-12.18 10.38c.987 1.155 1.962 2.32 2.937 3.487 3.593 4.296 7.308 8.74 11.61 12.81l10.996-11.625c-3.623-3.427-6.882-7.324-10.332-11.45zM408.156 229.657l10.344-10.343 10.344 10.343 11.312-11.315L429.814 208l10.342-10.343-11.312-11.315-10.344 10.343-10.344-10.343-11.312 11.315L407.186 208l-10.342 10.342"/></svg>