<svg xmlns="http://www.w3.org/2000/svg" width="512" height="512" viewBox="0 0 512 512"><path d="M256 32c-.46 0-.917.01-1.376.015l5.747.057C258.92 32.03 257.465 32 256 32zM378.553 193.21c-.195.065-.414.16-.62.27C343.7 206.77 301.598 216 256.05 215.955c-45.52-.076-87.626-9.398-121.81-22.772-.19-.104-.43-.192-.647-.265-1.53-.554-3.145-.897-4.84-.917-.254 0-.5-.012-.75 0v176.013C128 429.893 185.308 480 256 480c21.992 0 42.687-4.803 60.766-13.355.095-.045.19-.087.286-.133l.08-.04c4.87-2.343 9.58-4.962 14.122-7.827C363.22 438.275 384 405.27 384 368.012V192c-.19-.008-.496 0-.69 0-1.726.014-3.218.65-4.757 1.21zm-61.42 273.214c-.027.013-.055.026-.08.04-.096.044-.192.087-.287.132l.286-.133.08-.04c4.87-2.34 9.58-4.96 14.122-7.824-4.496 2.863-9.21 5.483-14.122 7.824z"/><path d="M331.254 458.6c-4.54 2.863-9.252 5.482-14.122 7.824 4.912-2.34 9.626-4.96 14.122-7.825zM260.37 32.072l-5.746-.057C184.566 32.662 128 82.547 128 144v22.708c2.158 2.024 4.593 3.755 7.25 5.115.674.337 1.387.66 2.06.996.032.026.077.01.11.035 22.756 10.35 51.428 15.8 83.414 19.006.694.08 1.397.108 2.148.12 11.258.017 17.014.02 17.018-10.57V96c0-8.836 7.164-16 16-16s16 7.164 16 16v86.328c-.088 9.672 5.926 9.72 17.2 9.75.717-.017 1.415-.046 2.08-.106.063-.003.142.005.245-.02 31.682-3.12 60.143-8.405 82.808-18.59 1.162-.545 2.29-1.056 3.407-1.58 2.27-1.233 4.365-2.744 6.26-4.467V144c0-60.575-54.96-109.91-123.63-111.928z"/></svg>