<svg xmlns="http://www.w3.org/2000/svg" width="512" height="512" viewBox="0 0 512 512"><path d="M369.54 32H142.36C81.52 32 32 82.574 32 144.604v222.79C32 429.426 81.52 480 142.36 480h227.18C430.48 480 480 429.426 480 367.395v-222.79C480 82.575 430.48 32 369.54 32zM175 250.954v.67c0 10.882-9.09 20.376-19.875 20.376h-23.27C121.073 272 112 262.506 112 251.624V148.162c1-10.77 9.193-20.162 19.855-20.162h23.27C166.01 128 175 137.847 175 148.83v102.124zM297 395.74v2.68c0 11.44-8.872 17.58-20.1 17.58h-41.798c-11.23 0-20.102-8.14-20.102-19.58v-29.317c0-23.33 18.118-42.287 41-42.287s41 18.957 41 42.287v28.637zm103-144.786v.67c0 10.882-9.07 20.376-19.855 20.376h-24.27C345.093 272 336 262.506 336 251.624V148.162c1-10.77 9.215-20.162 19.875-20.162h24.27C390.93 128 400 137.847 400 148.83v102.124z"/></svg>