<svg xmlns="http://www.w3.org/2000/svg" width="512" height="512" viewBox="0 0 512 512"><path d="M394.62 130.445c-42.66-18.924-89.267-28.472-138.65-28.425-49.373-.047-99.27 10.262-138.64 27.98-7.397 3.31-14.005 8.956-9.297 19.478L255.94 480l147.622-329.874c2.89-6.876.756-15.378-8.943-19.68zm-202.637 61.57c-17.67 0-31.995-14.323-31.995-31.993 0-17.67 14.325-31.992 31.995-31.992s31.996 14.323 31.996 31.992c0 17.67-14.326 31.993-31.997 31.993zm63.992 146.966c-17.67 0-31.995-14.322-31.995-31.992s14.324-31.992 31.995-31.992c17.67 0 31.995 14.322 31.995 31.992s-14.325 31.993-31.995 31.993zm63.99-114.973c-17.67 0-31.995-14.322-31.995-31.992s14.325-31.993 31.995-31.993 31.996 14.323 31.996 31.993-14.324 31.992-31.995 31.992z"/><path d="M421.79 66c-47.808-20.603-106.867-33.977-165.81-34-58.932 0-116.945 12.136-165.82 33.446C85.83 67.334 80 71.016 80 79.226c0 2.524.907 4.923.907 4.923l7.98 19.193c2.53 4.865 7.944 8.18 13.798 8.18 1.645 0 3.936-.33 6.65-1.476 44.9-18.93 94.47-29.588 146.644-29.564 52.174-.023 105.63 11.64 146.633 29.56 3.296 1.44 5.173 1.473 6.663 1.473 6.01 0 11.158-3.274 13.727-8.053l8.04-19.342c.577-1.557.957-3.286.957-4.767C432 72 427.614 68.51 421.79 66z"/></svg>