<svg xmlns="http://www.w3.org/2000/svg" width="512" height="512" viewBox="0 0 512 512"><path d="M96 124.17c0-6.937 5.232-12.17 12.17-12.17H176V64h-66.83C75.718 64 48 90.717 48 124.17V192h48v-67.83zM403.58 64H336v48h67.22c6.937 0 12.78 5.232 12.78 12.17V192h48v-67.83C464 90.718 437.033 64 403.58 64zM416 386.83c0 6.937-5.232 12.17-12.17 12.17H336v49h67.83c33.453 0 60.17-27.717 60.17-61.17V320h-48v66.83zM108.17 399c-6.938 0-12.17-5.232-12.17-12.17V320H48v66.83C48 420.282 75.717 448 109.17 448H176v-49h-67.83z"/></svg>