<svg xmlns="http://www.w3.org/2000/svg" width="512" height="512" viewBox="0 0 512 512"><circle cx="256" cy="256" r="64"/><path d="M144 256c0-36.9 18.553-69.208 46.314-87.034l-23.14-24.512c-6.26 4.608-12.18 9.833-17.685 15.663C125.313 185.73 112 219.78 112 256c0 36.22 13.314 70.27 37.49 95.883 5.504 5.83 11.424 11.055 17.684 15.662l23.14-24.51C162.555 325.207 144 292.9 144 256zM368 256c0 36.9-18.553 69.208-46.314 87.034l23.14 24.51c6.26-4.606 12.18-9.832 17.685-15.66C386.687 326.27 400 292.218 400 256c0-36.22-13.314-70.27-37.49-95.882-5.504-5.83-11.424-11.055-17.684-15.663l-23.14 24.512C349.445 186.792 368 219.1 368 256z"/><path d="M64 256c0-55.578 25.25-104.907 64.263-135.817L105.433 96c-6 5-11.74 10.396-17.197 16.178-17.622 18.67-31.462 40.417-41.134 64.64C37.082 201.92 32 228.557 32 256c0 27.443 5.08 54.084 15.102 79.18 9.672 24.227 23.512 45.974 41.134 64.643C93.694 405.603 99.434 411 105.433 416l22.83-24.182C89.25 360.908 64 311.578 64 256zM448 256c0 55.578-25.25 104.907-64.262 135.817l22.828 23.848c6-5 11.74-10.062 17.198-15.843 17.622-18.67 31.462-40.416 41.134-64.642C474.918 310.084 480 283.443 480 256c0-27.444-5.082-54.083-15.102-79.18-9.672-24.226-23.512-45.973-41.134-64.642C418.307 106.396 412.566 101 406.566 96l-22.83 24.183C422.75 151.093 448 200.423 448 256z"/></svg>