<svg xmlns="http://www.w3.org/2000/svg" width="512" height="512" viewBox="0 0 512 512"><path d="M256 72c-48.523 0-88 39.477-88 88s39.477 88 88 88 88-39.477 88-88-39.477-88-88-88z"/><path d="M256 32c-70.692 0-128 57.308-128 128s57.308 128 128 128 128-57.308 128-128S326.692 32 256 32zm0 224c-53.02 0-96-42.98-96-96s42.98-96 96-96 96 42.98 96 96-42.98 96-96 96z"/><g><path d="M147.092 254.21L64 400h96l48 80 48-105.807 33.64-74.154C278.85 302.622 267.586 304 256 304c-43.505 0-82.503-19.293-108.908-49.79zM364.908 254.21c-15.077 17.413-34.26 31.173-56.043 39.775l-44.752 98.092L304 480l48-80h96l-83.092-145.79z"/></g></svg>