<svg xmlns="http://www.w3.org/2000/svg" width="512" height="512" viewBox="0 0 512 512"><path d="M405.178 115.667c13.314-32.667 17.31-64-5.326-83.667L255.726 224l-16.976 23s-27.627 40.01-37.28 58.667-19.306 39.333-27.294 54c-7.01 12.87-10.438 15.22-14.322 11.548-.506-.59-1.026-1.168-1.553-1.736-.036-.048-.072-.09-.11-.14-1.142-1.47-2.75-3-4.634-4.466-9.36-8.08-21.008-12.874-33.636-12.874C89.037 352 64 380.653 64 416s25.037 64 55.92 64c25.282 0 46.635-19.205 53.553-45.56l-.004.042S186.823 393 206.13 363c19.306-30 49.596-43 49.596-43l31.954-32s104.183-139.666 117.498-172.333zM119.92 448c-15.418 0-27.918-14.353-27.918-32s12.5-32 27.918-32c15.42 0 27.918 14.353 27.918 32s-12.5 32-27.918 32zM256 288c-8.836 0-16-7.163-16-16 0-8.836 7.164-16 16-16 8.837 0 16 7.164 16 16 0 8.837-7.163 16-16 16z"/><path d="M207.28 265.255c9.18-14.114 17.67-26.43 18.304-27.346l.143-.21.15-.202 16.976-23 .038-.052.04-.052 2.94-3.918L111.897 32c-22.634 19.667-18.64 51-5.326 83.667 9.953 24.42 70.68 108.623 100.71 149.588zM391.828 352c-12.628 0-24.275 4.795-33.637 12.874-1.884 1.465-3.49 2.995-4.634 4.467-.037.05-.072.092-.11.14-.525.567-1.046 1.145-1.552 1.735-3.884 3.673-7.312 1.323-14.322-11.548-7.988-14.667-17.64-35.344-27.294-54-1.77-3.42-4.146-7.56-6.843-12.038-1.272 1.71-2.264 3.042-2.932 3.937l-.688.924-.813.816-28.688 28.73C280.747 334.89 294.88 346.31 305.62 363c19.305 30 32.66 71.482 32.66 71.482l-.004-.043c6.917 26.355 28.27 45.56 53.552 45.56C422.71 480 448 451.347 448 416s-25.29-64-56.172-64zm0 96c-15.42 0-27.918-14.353-27.918-32s12.498-32 27.918-32c15.418 0 27.918 14.353 27.918 32s-12.5 32-27.918 32z"/></svg>