<svg xmlns="http://www.w3.org/2000/svg" width="512" height="512" viewBox="0 0 512 512"><path d="M192 104V301.02c0 41.567-9.644 71.988-28.662 90.417-17.06 16.53-42.06 24.565-76.43 24.565-12.003 0-25.78-1.496-37.186-3.886l4.09-30.505c7.146 1.268 15.465 2.148 24.774 2.148 21.92 0 37.892-6.46 48.827-19.745C138.73 350.268 144 330.085 144 300.5V104h48m16-16h-80v212.5c0 52.58-18.032 67.26-49.412 67.26-14.705 0-27.948-2.52-38.25-6.063L32 423.904C46.7 428.966 69.26 432 86.907 432 158.955 432 208 398.13 208 301.02V88zM382.463 96c24.458 0 45.898 3.146 65.1 9.585l-9.58 32.062c-13.613-5.505-32.537-10.937-56.487-10.937-18.607 0-34.462 4.584-45.85 13.256-11.73 8.936-18.193 21.583-18.193 35.613 0 34.973 33.062 48.148 71.347 63.404l.107.043.108.04c26.977 10.3 45.938 22.262 57.97 36.573C458.592 289.45 464 305.543 464 326.284c0 25.177-9.333 46.71-26.99 62.274-20.35 17.94-51.417 27.422-89.843 27.422-28.052 0-54.698-6.427-72.615-13.98l7.593-31.602c17.58 7.248 41.882 14.382 69.438 14.382 20.28 0 36.63-4.478 48.59-13.306 12.808-9.45 19.858-23.697 19.858-40.12 0-15.347-6.04-27.92-18.468-38.443-10.157-8.602-24.8-16.047-47.467-24.135-26.86-9.904-47.36-21.947-60.934-35.795-14.238-14.525-21.16-31.15-21.16-50.826 0-24.15 9.83-45.1 28.43-60.59C320.51 104.838 348.876 96 382.463 96m0-16C305.02 80 256 123.998 256 182.154c0 50.083 37.75 81.44 92.64 101.665 39.7 14.157 55.393 26.807 55.393 47.538 0 22.756-18.14 37.425-52.448 37.425-31.863 0-60.79-10.64-80.394-21.255v-.02L256 410.727c18.64 10.637 53.44 21.254 91.167 21.254C437.854 431.98 480 383.43 480 326.284c0-48.55-26.958-79.9-85.278-102.163-43.14-17.19-61.27-26.794-61.27-48.54 0-17.2 15.688-32.87 48.043-32.87 31.846 0 53.744 10.707 66.505 17.29l19.125-64c-20-8.78-46.937-16-84.662-16z"/></svg>