<svg xmlns="http://www.w3.org/2000/svg" width="512" height="512" viewBox="0 0 512 512"><path fill-rule="evenodd" clip-rule="evenodd" d="M209.877 154.114c-4.258-11.323-9.176-10.515-12.45-10.64-3.277-.12-6.146-.06-10.573.012-3.746.06-9.882 1.026-15.232 6.413-5.357 5.377-20.366 18.31-21.404 45.724-1.03 27.408 18.08 54.643 20.75 58.455 2.666 3.825 36.493 63.235 92.718 87.67 56.23 24.426 56.525 16.98 66.84 16.434 10.325-.54 33.726-12.246 38.9-25.073 5.17-12.826 5.587-23.978 4.27-26.357-1.316-2.37-5-3.91-10.51-6.9-5.516-2.995-32.595-17.498-37.673-19.55-5.08-2.044-8.787-3.108-12.742 2.33-3.956 5.42-15.19 17.568-18.595 21.167-3.42 3.6-6.71 3.934-12.226.93-5.5-2.988-23.374-9.548-44.1-29.317-16.125-15.38-26.71-34.043-29.778-39.736-3.07-5.697-.02-8.604 2.9-11.27 2.618-2.406 5.857-6.3 8.792-9.448 2.92-3.15 3.95-5.43 5.96-9.084 2.008-3.645 1.2-6.932-.1-9.77-1.304-2.84-11.49-30.67-15.747-41.992z"/><path d="M260.062 64c50.25 0 97.478 19.402 132.982 54.632 35.438 35.164 54.956 81.9 54.956 131.6 0 49.694-19.518 96.43-54.956 131.596-35.507 35.232-82.735 54.637-132.982 54.637-31.806 0-63.24-8.023-90.906-23.2l-12.017-6.594-13.064 4.15-61.452 19.522L102 373.192l4.797-14.15-7.77-12.763c-17.594-28.9-26.893-62.112-26.893-96.048 0-49.7 19.518-96.436 54.957-131.6C162.597 83.4 209.82 64 260.063 64m0-32C138.605 32 40.134 129.7 40.134 250.232c0 41.23 11.532 79.79 31.56 112.687L32 480l121.764-38.682c31.508 17.285 67.745 27.146 106.298 27.146C381.535 468.464 480 370.75 480 250.232 480 129.702 381.535 32 260.062 32z"/></svg>