<svg xmlns="http://www.w3.org/2000/svg" width="512" height="512" viewBox="0 0 512 512"><path d="M398.484 164.452l-27.4 137.185c1.764-7.15 15.46-76.844 27.4-137.185z"/><path d="M376.764 32H138.54C105.667 32 96 56.798 96 72.414v379.64c0 17.59 9.425 24.117 14.718 26.267 5.3 2.156 19.916 3.972 28.673-6.167 0 0 112.47-131.09 114.4-133.027 2.922-2.93 2.922-3.125 5.845-3.125H332.4c30.576 0 35.49-21.675 38.685-34.558l27.4-137.087c6.073-30.702 11.692-58.938 15.052-75.325C421.143 51.944 411.744 32 376.764 32zm-.338 64s-31.575 156.21-36.034 176.834C335 297.77 332.75 304 307 304h-62.375c-2.747 0-3.868-.147-6.05 2.04-1.442 1.448-78.167 89.563-78.167 89.563-19.034 23.396-26.91 31.795-29.033 31.795s-3.375 0-3.375-38.408V91.708C128 67.034 128.3 64 157.198 64H352c30 0 30.834.833 24.426 32z"/><path d="M398.484 164.452l15.053-75.374c-3.36 16.388-8.978 44.672-15.053 75.374zM328.573 96H170.578C164.09 96 160 101.594 160 106.586V337.84c0 .67.402.976.935.36 0 0 48.202-55.724 54.056-63.02 5.85-7.29 8.492-8.182 17.234-8.182h62.212c6.55 0 10.24-5.75 10.913-8.982.67-3.228 10.535-48.213 11.73-54.12C318.273 198 312.868 192 307.36 192h-64.806c-7.803 0-7.554-5.654-7.554-13.477v-5.512c0-7.814-.282-13.01 7.516-13.01h75.313c4.91 0 10.207-4.443 11.1-8.663l8.47-44.042c1.34-6.472-3.572-11.295-8.827-11.295z"/></svg>