<svg xmlns="http://www.w3.org/2000/svg" width="512" height="512" viewBox="0 0 512 512"><path d="M220.746 102.625c-7.788 1.683-17.44 4.813-24.64 8.53-9.02 4.648-16.412 10.964-22.605 19.294-6.705 9-10.104 19.988-10.104 32.656 0 17.916 6.197 32.288 18.405 42.702 9.335 7.983 21.505 14.43 36.688 19.165L240 230.667V100.244s-8.234 0-19.254 2.38zM224 209.7c-12-3.744-23.912-9.09-32.05-16.05-8.622-7.354-12.674-17.533-12.674-30.544 0-9.24 2.414-16.94 7.004-23.102 4.58-6.16 9.912-11.038 16.88-14.63 6.18-3.19 13.84-5.566 20.84-7.14V209.7zM348.217 296.725c-8.432-8.29-18.002-14.296-28.414-17.84-8.95-3.075-17.44-5.848-27.465-8.477L272 265.145v145.188s12.05-.642 18.37-1.476 10.704-1.97 16.67-3.798c12.728-3.89 23.31-9.02 31.32-15.25 8.68-6.748 15.146-14.786 19.165-23.908 3.775-8.595 5.706-17.58 5.706-26.71 0-18.37-5.042-32.656-15.013-42.467zm-5.315 62.746c-2.94 6.674-7.7 12.577-14.303 17.712-6.603 5.133-15.745 9.328-26.378 12.577-4.5 1.377-8.223 2.443-14.223 3.235v-107.11c10 2.624 18.18 5.332 26.325 8.13 8.062 2.745 15.748 7.444 22.537 14.117 6.785 6.676 10.31 17.03 10.31 31.06 0 6.85-1.338 13.605-4.27 20.28z"/><path d="M411.387 303.256c-3.12-9.577-7.89-18.56-14.3-26.952-6.423-8.382-14.397-15.826-23.93-22.33-9.54-6.5-20.722-11.63-33.554-15.4-5.143-1.364-14.19-3.507-26.104-6.42-8.517-2.073-16.5-4.2-25.5-6.366V120.065c9 2.396 15.25 6.202 21.925 10.43 14.28 9.04 23.232 24.505 25.855 45.505h69.174c-.654-18-4.65-32.76-11.996-46.02-8.07-14.543-18.977-27.024-32.73-36.956-13.75-9.922-30.225-17.49-48.377-22.455-7.883-2.154-14.85-3.965-23.85-5.184V32h-64v33.167c-7 1.044-15.148 2.445-22.426 4.25-17.242 4.283-32.388 10.868-45.95 19.764-13.572 8.906-24.353 20.113-32.605 33.628-8.252 13.523-12.313 29.52-12.313 48 0 9.585 1.407 18.993 4.157 28.235 2.752 9.24 7.442 17.967 14.042 26.18 6.603 8.215 15.495 15.66 26.687 22.333 11.183 6.672 24.705 12.064 41.576 16.17 9.286 2.346 18.83 4.535 26.83 6.577V389.89c-11-2.92-21.89-7.4-30.68-13.48-9.17-6.327-16.065-13.953-21.197-23.884-4.78-9.23-7.073-20.526-7.407-32.526H96c.695 21 5.25 39.494 13.672 55.37 8.8 16.605 20.533 29.96 35.204 40.563 14.662 10.613 31.393 18.356 51.198 23.49 8.885 2.305 18.926 3.96 27.926 5.23V480h64v-34.54c10-1.07 18.957-2.69 28.527-4.88 18.7-4.272 35.645-11.035 50.316-20.275 14.662-9.24 26.62-21.128 35.61-35.68 8.98-14.542 13.546-32.086 13.546-52.62 0-9.578-1.502-19.164-4.613-28.75zm-22.483 72.962c-7.623 12.34-17.873 22.62-30.457 30.55-13.035 8.21-28.248 14.34-45.22 18.217-9.058 2.07-17.284 3.564-26.653 4.566L272 431.08V464h-32v-33.244l-13.508-1.943c-9.256-1.307-18.67-2.968-26.27-4.938-17.866-4.633-32.877-11.51-46.032-21.032-12.845-9.283-22.77-20.55-30.408-34.967-5.004-9.437-8.418-20.876-10.268-31.876h36.714c1.53 8 4.162 16.837 7.804 23.87 6.324 12.238 14.98 21.913 26.44 29.822 10.146 7.017 23.81 12.64 35.677 15.724s19.85 3.25 19.85 3.25V257.875l-11.786-3.074c-4.952-1.263-11.074-2.583-16.558-3.96-3.395-.854-6.814-1.73-10.37-2.626l-.033-.017-.05-.017c-14.953-3.64-27.534-8.472-37.412-14.365-9.486-5.657-17.02-11.92-22.398-18.61-5.27-6.56-9.03-13.534-11.17-20.723-2.307-7.755-3.476-15.72-3.476-23.675 0-15.66 3.274-28.636 10.002-39.665 7.097-11.622 16.187-20.973 27.786-28.585 12.2-8.003 25.666-13.764 41.155-17.61 6.333-1.572 12.864-2.902 19.925-3.955L240 78.958V48h32v31.363l13.127 1.877c7.37 1 14.236 2.404 22.637 4.7 16.39 4.48 30.91 11.188 43.023 19.928 11.69 8.443 21.182 19.333 28.133 31.862 3.805 6.865 6.504 14.27 8.137 22.27h-38.12c-5.077-19-15.35-33.637-30.17-43.02-9.255-5.862-17.562-9.216-27.374-12.252C281.766 101.75 272 101.25 272 101.25v137.142l12.53 2.95c7.63 1.838 14.183 3.645 21.452 5.416l3.92.938.812.19c11.373 2.78 19.65 4.8 24.558 6.096 11.084 3.275 20.8 7.72 28.85 13.204 8.08 5.513 14.896 11.853 20.237 18.828 5.29 6.925 9.263 14.393 11.8 22.18 2.562 7.897 3.863 15.91 3.863 23.81 0 17.39-3.74 32.267-11.12 44.214z"/></svg>