<svg xmlns="http://www.w3.org/2000/svg" width="512" height="512" viewBox="0 0 512 512"><path d="M325.862 275.558l-18.187-13.653-.063-.05c-5.827-4.58-9.952-8.314-9.952-14.686 0-6.98 5.05-11.825 10.896-17.437l.466-.45c20.025-15.17 44.726-34.285 44.726-74.555 0-26.934-11.916-44.73-23.28-57.73h12.97l60.32-33H270.31c-25.324 0-62.68 3.226-94.56 28.577l-.13.25c-21.808 18.11-34.827 44.584-34.827 70.69 0 21.198 8.707 42.16 23.886 57.448 21.428 21.58 48.302 26.127 67.074 26.127 1.462 0 2.956-.028 4.47-.093-.76 2.97-1.25 6.32-1.25 10.32 0 10.927 3.628 19.302 8.083 26.196-23.963 1.932-58.148 6.477-84.897 22.278-39.335 22.563-42.396 55.876-42.396 65.552 0 38.207 35.707 76.762 115.48 76.762 91.61 0 139.542-49.792 139.542-98.98 0-37.158-22.837-55.667-44.92-73.566zM200.485 139.894c0-13.36 3.02-23.457 9.255-30.9 6.514-7.852 18.18-13.13 29.028-13.13 19.88 0 32.938 15.01 40.388 27.6 9.2 15.538 14.913 36.094 14.913 53.642 0 4.942 0 19.983-10.19 29.796-6.95 6.686-18.706 11.353-28.59 11.353-20.502 0-33.452-14.705-40.706-27.04-10.395-17.685-14.1-38.106-14.1-51.32zM321.6 367.974c0 27.444-25.212 44.493-65.8 44.493-48.057 0-80.346-20.603-80.346-51.265 0-26.14 21.54-36.79 37.8-42.52 18.944-6.065 44.297-7.306 50.062-7.306 3.907 0 6.087 0 8.683.23 36.7 25.21 49.6 36.127 49.6 56.368z"/></svg>