<svg xmlns="http://www.w3.org/2000/svg" width="512" height="512" viewBox="0 0 512 512"><path d="M319.408 82.14c11.78 9.577 36.43 29.72 36.43 68.044 0 37.295-21.547 54.934-43.094 71.545-6.695 6.56-14.385 13.607-14.385 24.7 0 11.092 7.688 17.153 13.335 21.67l18.473 14.11c22.598 18.64 43.125 35.794 43.125 70.558 0 47.373-46.72 95.232-135.003 95.232-74.428 0-110.343-34.766-110.343-72.06 0-18.14 9.245-43.828 39.525-61.48 31.798-19.143 74.952-21.658 98.023-23.173-7.178-9.078-15.382-18.67-15.382-34.265 0-8.577 2.557-13.61 5.12-19.655-5.648.5-11.283 1-16.42 1-54.408 0-85.214-39.81-85.214-79.107 0-23.186 10.8-48.902 32.855-67.543C215.725 68.03 250.637 64 278.328 64h105.725l-32.846 18.14h-31.8zm-36.453 223.756c-4.137-.5-6.684-.5-11.793-.5-4.63 0-32.348 1-53.895 8.048-11.3 4.046-44.146 16.125-44.146 51.918 0 35.78 35.394 61.467 90.34 61.467 49.283 0 75.432-23.157 75.432-54.405 0-25.718-16.92-39.312-55.937-66.53m14.88-95.747c11.823-11.592 12.843-27.73 12.843-36.793 0-36.28-22.086-92.73-64.67-92.73-13.34 0-27.725 6.547-35.95 16.64-8.72 10.592-11.283 24.187-11.283 37.28 0 33.764 20.005 89.727 64.163 89.727 12.826 0 26.656-6.06 34.896-14.124"/></svg>