<svg xmlns="http://www.w3.org/2000/svg" width="512" height="512" viewBox="0 0 512 512"><path d="M310.143 64c31.337 0 59.096 2.607 88.137 8.364l-5.06 34.148c-29.405-4.32-55.66-6.43-79.853-6.43-35.025 0-58.535 6.154-74.13 19.366C220.143 135.628 218 158.428 218 174.17V193H354.05l-2.382 16H218v80H339.752l-2.384 16H218v27.83c0 19.546 2.338 44.06 21.084 60.274 15.042 13.01 37.92 18.812 74.258 18.812 24.534 0 50.197-2.055 79.77-6.42l5.015 34.138c-29.03 5.76-56.74 8.366-87.977 8.366-52.59 0-91.43-9.08-115.565-26.987C172.615 404.71 162 380.36 162 346.57V305h-50v-16h50v-80h-50v-16h50v-27.57c0-33.79 10.613-58.142 32.582-74.442C218.715 73.08 257.552 64 310.142 64m.067-16C195.48 48 146 89.225 146 165.43V177H96v48h50v48H96v48h50v25.57C146 422.774 195.48 464 310.21 464c35.25 0 67.778-3.123 105.79-11.866l-9.41-64.96c-37.324 6.244-66.943 8.742-93.207 8.742-64.275 0-79.383-18.74-79.383-63.086V321h117.162l7.148-48H234v-48h131.46l7.15-48H234v-2.83c0-35.92 15.16-58.086 79.434-58.086 26.264 0 55.96 2.498 93.28 8.742L416 60c-38.012-8.743-70.542-12-105.79-12z"/></svg>