<svg xmlns="http://www.w3.org/2000/svg" width="512" height="512" viewBox="0 0 512 512"><path d="M255.82 144c88.27 0 159.824-28.654 159.824-64S344.09 16 255.82 16C167.552 16 95.997 44.654 95.997 80s71.555 64 159.823 64zm0-110.96c69.73 0 126.26 19.235 126.26 42.96s-56.53 42.96-126.26 42.96S129.562 99.724 129.562 76s56.53-42.96 126.258-42.96z"/><path d="M256.57 160c-88.27 0-160.567-28.654-160.567-64 0 0-.003 34 7.997 40v240c0 35.346 63.732 64 152 64 88.27 0 152-28.654 152-64V136c8-7.438 7.708-34.853 7.817-40-1.152 34.946-71.7 64-159.247 64zM376 375.588c0 2.232-7.96 10.682-29.423 18.688-23.724 8.85-55.765 13.724-90.304 13.724-34.54 0-66.83-4.874-90.554-13.725C144.256 386.27 137 377.82 136 375.588v-79.564c18 9.72 42.742 17.115 72.156 20.98l1.588.236c5.743 20.068 24.192 34.76 46.082 34.76s40.338-14.69 46.084-34.754l1.755-.244C333.08 313.14 358 305.744 376 296.022v79.566zm0-111.565c-18 9.83-43.476 17.284-73.325 21.11l-2.61.195C292.79 268.098 275.723 256 255.86 256c-19.868 0-36.92 12.102-44.19 29.34l-2.515-.206c-29.85-3.826-55.155-11.28-73.155-21.11V172.76C170 185.25 211.923 192 256.5 192c44.165 0 86.5-6.713 119.5-18.955v90.978zM256.272 464c.293 0 .583-.006.876-.007-.35 0-.7.005-1.05.005l.174.002z"/><path d="M408 416v-16c0 36-63.432 64-152 64-88.57 0-152-28.654-152-64v16l-7.74 16c0 6.994 2.94 13.725 8.118 20.025C125.37 477.562 185.47 496 256.273 496c70.8 0 130.87-18.438 151.863-43.975 5.18-6.3 7.923-13.03 7.923-20.025L408 416z"/></svg>