<svg xmlns="http://www.w3.org/2000/svg" width="512" height="512" viewBox="0 0 512 512"><path d="M368 0v40h69.873l-93.046 91.97c-8.53-8.25-15.132-12.586-15.132-12.586C308.84 104.694 283.422 96 256 96c-34.525 0-65.86 13.67-88.903 35.894l-17.333-17.13 35.833-35.834-32.527-32.527-36.022 36.02L74.128 40H144V0H0v144h40V67.806l46.085 45.582-35.683 35.682 32.526 32.526 35.862-35.86 22.185 21.94c-8.395 17.066-13.118 36.268-13.118 56.58C127.857 286.883 173 338.988 232 350.25V402h-72v46h72v64h48v-64h72v-46h-72v-51.75c58-11.26 104.222-63.397 104.222-126.025 0-20.202-4.794-39.738-13.094-56.65L472 67.806V144h40V0H368zM255.93 304.402c-44.157 0-80.08-35.968-80.08-80.178 0-44.21 35.923-80.18 80.08-80.18 44.154 0 80.077 35.97 80.077 80.18 0 44.21-35.923 80.178-80.078 80.178z"/></svg>