<svg xmlns="http://www.w3.org/2000/svg" width="512" height="512" viewBox="0 0 512 512"><path d="M436.912 370.44L320 175V48h16V32h-32v147.418l2.514 3.79L423.09 378.044c6.75 12.818 9.313 25.95 9 37.957-.243 9.34-1.958 17.938-6.545 25.57-8.47 14.096-23.215 22.43-40.564 22.43H129.094c-17.504 0-32.46-8.435-41.035-22.705-11.897-19.8-10.89-38.145 2.275-63.14L181.82 224H240v-16h-48.683l14.687-24.756L208 179.4V176h48v-16h-48v-32h32v-16h-32V80h48V64h-48V32h-32v16h16v127L76.126 370.44c-8.412 15.828-12.51 31.374-12.1 45.56 1.062 36.51 28.703 64 65.066 64h255.89c36.29 0 62.13-27.598 62.99-64 .34-14.244-2.605-29.65-11.06-45.56z"/><path d="M108.292 374.616c-6.907 10.542-10.936 24.095-10.936 33.55 0 27.584 15.82 39.834 45.682 39.834H368.97c29.804 0 44.975-15.71 45.68-39.96.278-9.487-3.142-22.728-10.085-33.323L332.73 256H179.5l-71.208 118.616zM323.705 272l67.168 110.87.15.124.16.182c5.382 8.212 7.647 18.275 7.476 24.18-.23 7.84-2.478 13.98-6.684 17.795-4.774 4.33-12.73 6.85-23.008 6.85h-225.93c-11.065 0-19.27-2.235-23.73-5.995-1.473-1.24-5.955-5.143-5.955-18.088 0-5.943 2.857-16.383 8.32-24.717l.176-.302.165-.042L188.565 272h135.14z"/></svg>