<svg xmlns="http://www.w3.org/2000/svg" width="512" height="512" viewBox="0 0 512 512"><path d="M448 272.754v-32.008l-33.29-8.703-2.602-13.204 27.594-20.906-12.197-29.608-34.392 4.802-7.498-10.603 17.696-29.708-22.593-22.605-30.192 17.404-10.697-7.302 5.298-35.01-29.492-12.302-21.594 28.308-12.297-2.6L273.045 64h-31.99l-9.198 34.91-12.098 2.4-21.495-29.01-29.592 12.305 4.8 35.71-11.698 7.2-31.292-18.704-22.594 22.607 18.794 31.508-6.698 10.502-35.49-5L72.3 198.033l28.892 21.706-2.4 12.203L64 240.846v32.008l34.69 8.903 2.4 12.503-28.394 21.306 12.297 29.508 34.99-5.002 7.1 11.303-17.896 30.608 22.595 22.605 30.192-18.204 11.196 7.302-4.498 34.31 29.592 12.202 20.595-27.807 13.395 2.5 8.8 33.11h31.99l8.298-33.11 13.597-2.6 20.694 27.107 29.593-12.204-4.998-33.708 10.195-7.4 28.992 16.903 22.595-22.606-16.795-28.907 7.896-11.403 33.79 4.802 12.3-29.508-27.194-20.506 2.7-13.503 33.29-8.603zm-28.293 48.013l-2.8 6.702-31.89-4.502-18.897 27.807 15.695 27.106-5.198 5.203-27.293-15.904-26.593 18.203 4.8 31.81-6.698 2.8-19.595-25.606-32.892 6.5-7.798 31.21h-7.198l-8.398-31.31-32.592-6.5-19.495 26.406-6.698-2.8 4.4-32.51-27.494-18.304-28.793 17.503-5.1-5.1 16.997-29.11-18.096-27.605-33.19 4.7-2.7-6.602 26.895-20.205-6.2-31.808-32.99-8.502v-7.202l32.99-8.402 6.3-31.608-27.293-20.505 2.7-6.602 33.69 4.802 17.796-26.807-17.996-30.008 5-5 20.594 12.302 9.197 5.5 27.893-18.205-4.5-33.81 6.7-2.8 20.294 27.408 31.492-6.102 8.798-33.207h7.198l8.298 33.008 31.69 6.302 20.096-26.807 6.598 2.8-5 33.11 27.194 18.104 28.292-16.206 5.1 5.102-16.695 28.007 18.397 27.007 32.49-4.6 2.8 6.7-26.193 19.706 6.498 32.508 31.292 8.102v7.202l-31.39 8.103-6.5 32.71 25.993 19.807z"/><path d="M256 128c-70.692 0-128 57.308-128 128 0 70.693 57.308 128 128 128s128-57.307 128-128c0-70.692-57.308-128-128-128zM144 256c0-29.916 11.65-58.042 32.804-79.195C197.958 155.65 226.084 144 256 144c7.496 0 14.88.732 22.07 2.16L250.3 250.1l-104.155 27.888C144.727 270.824 144 263.468 144 256zm112 112c-29.917 0-58.042-11.65-79.196-32.804-11.927-11.926-20.83-26.07-26.33-41.5L253.9 266.2l74.935 74.89C308.558 358.5 283.01 368 256 368zm84.154-38.1l-74.954-75 28.05-104.58c15.604 5.487 29.904 14.443 41.945 26.484C356.35 197.958 368 226.084 368 256c0 27.486-9.84 53.457-27.846 73.9z"/></svg>