<svg xmlns="http://www.w3.org/2000/svg" width="512" height="512" viewBox="0 0 512 512"><path d="M365.42 152h13.81l-50.74 41.584 20.31 24.572L448 136l-99.136-84-20.368 24.978L379.68 120h-14.26c-103.728 0-146.495 79.62-180.858 143.727-1.362 2.542-2.715 4.99-4.06 7.488l-.06.095c-1.59 2.953-3.175 6.114-4.76 9.038-35.56 65.63-66.892 83.214-111.683 83.64V396c37.624 0 57.562-9.45 72.235-18.178 24.935-14.83 47.042-44.56 67.583-82.467 1.54-2.844 3.083-5.752 4.632-8.626l.225-.44c1.46-2.71 2.922-5.272 4.39-8.013C246.37 216.113 280.808 152 365.42 152z"/><path d="M348.798 293.844l-20.308 24.572L379.23 360h-13.81c-70.73 0-106.397-44.8-135.65-95.812l-17.648 32.618C243.556 346.626 287.116 392 365.42 392h14.26l-51.184 43.022L348.864 460 448 376l-99.202-82.156zM175.684 231.652c1.584 2.924 3.17 6.085 4.76 9.038l.06.095c1.217 2.262 2.44 4.49 3.674 6.777 5.82-10.73 11.98-21.748 18.695-32.65-20.273-37.078-42.083-66.13-66.636-80.734C121.563 125.45 101.625 116 64 116v32.01c44.79.428 76.122 18.012 111.684 83.642z"/></svg>