<svg xmlns="http://www.w3.org/2000/svg" width="512" height="512" viewBox="0 0 512 512"><path d="M366.863 323.883l22.627 22.627L480 256l-90.51-90.51-22.628 22.628L418.745 240H192v32h226.745"/><path d="M391.49 391.766C355.23 428.03 307.02 448 255.737 448c-51.287 0-99.506-19.97-135.772-56.235C83.697 355.5 64 307.285 64 256c0-51.28 19.697-99.495 55.965-135.76C156.232 83.972 204.45 64 255.735 64c51.28 0 99.492 19.973 135.756 56.238 2.528 2.528 4.967 5.12 7.334 7.762h40.73c-40.473-58.028-107.708-96-183.818-96C132.02 32 32 132.298 32 256c0 123.715 100.02 224 223.736 224 76.112 0 143.35-37.97 183.822-96h-40.73c-2.368 2.643-4.807 5.236-7.337 7.766z"/></svg>