<svg xmlns="http://www.w3.org/2000/svg" width="512" height="512" viewBox="0 0 512 512"><path d="M448 96c0-35.29-28.71-64-64-64s-64 28.71-64 64c0 23.637 12.89 44.307 32 55.39v52.833l-96 48-96-48V151.39c19.11-11.083 32-31.753 32-55.39 0-35.29-28.71-64-64-64S64 60.71 64 96c0 23.637 12.89 44.307 32 55.39v92.388l128 64v52.832c-19.11 11.084-32 31.754-32 55.39 0 35.29 28.71 64 64 64s64-28.71 64-64c0-23.636-12.89-44.306-32-55.39v-52.832l128-64V151.39c19.11-11.083 32-31.753 32-55.39zM128 64c17.673 0 32 14.327 32 32s-14.327 32-32 32-32-14.327-32-32 14.327-32 32-32zm128 384c-17.673 0-32-14.327-32-32s14.327-32 32-32 32 14.327 32 32-14.327 32-32 32zm128-320c-17.673 0-32-14.327-32-32s14.327-32 32-32 32 14.327 32 32-14.327 32-32 32z"/></svg>