<svg xmlns="http://www.w3.org/2000/svg" width="512" height="512" viewBox="0 0 512 512"><path d="M149.515 283.35c-51.92 0-83.94 45.66-83.94 95.084 0 22.69-10.07 39.153-33.574 48.104 17.908 34.678 87.778 41.157 117.516 35.797 35.642-6.426 80.077-24.873 90.654-76.97 12.31-60.626-38.736-102.016-90.655-102.016z"/><path d="M467.638 60.356c-12.955-12.948-29.964-17.292-44.92-5.35L247.598 209.1c-8.648-2.37-16.525-1.87-22.91 2.346L165.897 260.4c-1.61 1.61-1.545 4.304.066 5.914.5.5 1.064.79 1.697.98.64.034 1.263.06 1.898.103.02-.002.036-.01.054-.014 47.938 3.432 91.034 36.754 89.3 89.506-.016.504-.03 1.006-.054 1.515.123.848.5 1.664 1.15 2.315 1.594 1.593 4.167 1.605 5.78.044.018-.018.037-.027.055-.044.063-.063.106-.137.164-.2l50.457-57.342c4.216-6.374 4.72-14.24 2.355-22.875l154.168-175.047c11.95-14.948 7.604-31.948-5.35-44.9z"/><path d="M165.887 260.41l.01-.01-.01.007"/></svg>