<svg xmlns="http://www.w3.org/2000/svg" width="512" height="512" viewBox="0 0 512 512"><path fill-rule="evenodd" clip-rule="evenodd" d="M387.547 203.724c-41.135-27.326-82.225-54.72-123.26-82.195-5.845-3.913-11.12-3.803-16.94.094-40.784 27.313-81.817 54.546-122.723 81.676-5.103 3.384-7.624 7.575-7.624 13.716v79.73c0 6.173 2.484 10.34 7.594 13.73 40.906 27.13 81.84 54.36 122.625 81.675 5.81 3.892 11.13 4.056 16.983.138 41.035-27.474 82.145-54.873 123.286-82.188 4.857-3.226 7.51-7.31 7.51-13.094v-80.623c0-5.716-2.775-9.553-7.453-12.66zM268 152.484l93.055 62.218-39.75 26.467c-.92.602-2.924.603-3.84 0-15.944-10.502-31.816-21.114-47.627-31.816-1.033-.7-1.828-2.32-1.838-3.52v-53.35zm-24 .28v51.707c-.024 1.826-1.313 4.317-2.8 5.335-15.257 10.45-30.654 20.7-46.108 30.86-1.17.77-3.547 1.148-4.566.485-13.116-8.53-26.087-17.284-39.787-26.443C181.966 193.89 244 152.765 244 152.765zm-103 84.352l29.622 19.77L141 276.727v-39.61zm103 124.2s-62.034-41.41-93.196-62.186l38.87-26.154c2.073-1.442 3.474-1.344 5.503.03 15.32 10.36 30.74 20.57 46.062 30.93 1.207.814 2.748 2.37 2.76 3.595v53.787zm14.95-78.424c-1.825 1.108-4.513 1.046-6.26-.11l-38.843-25.866s17.108-11.493 25.356-17.023c4.7-3.152 9.346-6.393 14.164-9.355 1.132-.696 3.532-.97 4.743-.168 5.773 3.83 39.854 26.53 39.854 26.53l-39.015 25.992zm9.05 78.21v-51.346c-.026-2.87.45-4.602 2.86-6.19 15.2-10.005 30.333-20.11 45.387-30.33 2.335-1.587 3.92-1.624 6.265-.02l38.527 25.882L268 361.102zm102-84.426l-29.59-19.743L370 237.06v39.616z"/><path d="M256 64c51.285 0 99.5 19.972 135.765 56.235C428.028 156.5 448 204.715 448 256s-19.972 99.5-56.235 135.765C355.5 428.028 307.285 448 256 448s-99.5-19.972-135.765-56.235C83.972 355.5 64 307.285 64 256s19.972-99.5 56.235-135.765C156.5 83.972 204.715 64 256 64m0-32C132.288 32 32 132.288 32 256s100.288 224 224 224 224-100.288 224-224S379.712 32 256 32z"/></svg>