<svg xmlns="http://www.w3.org/2000/svg" width="512" height="512" viewBox="0 0 512 512"><path d="M374.64 127.327C345.365 88.512 303.062 64 256 64s-89.365 24.512-118.64 63.327c6.354 15.64 15.833 30 28.13 42.297 24.176 24.176 56.32 37.49 90.51 37.49s66.334-13.314 90.51-37.49c12.297-12.297 21.776-26.658 28.13-42.297z"/><path d="M126.836 142.824c-1.725 2.827-3.396 5.703-4.992 8.644-2.926-1.84-5.32-3.74-7.745-5.773-1.172-.98-2.955-3.95-4.547-7.35 5.41-11.314 1.18-25.037-9.914-31.26-11.562-6.485-26.19-2.373-32.675 9.188-6.485 11.56-2.37 26.188 9.187 32.673 1.25.702 2.54 1.272 3.847 1.73 2.815 6.268 7.32 14.33 13.547 19.546 4.184 3.507 8.792 7.117 15.204 10.674-7.194 20.26-11.575 42.303-12.544 65.427-11.026.207-18.62 2.1-25.474 4.122-4.16 1.227-8.192 3.395-11.823 5.852-.955-.115-1.924-.182-2.91-.182-13.254 0-24 10.745-24 24s10.746 24 24 24c12.93 0 23.468-10.227 23.977-23.032 5.046-1.482 9.888-2.66 17.095-2.774 3.167 33.014 13.304 63.482 28.613 89.223-14.166 11.006-22.882 23.016-26.605 36.317 0 0-.75.438-1.873 1.366-.982.794-1.932 1.65-2.804 2.62-8.865 9.854-8.062 25.03 1.793 33.894 9.854 8.865 25.028 8.062 33.893-1.793 8.086-8.988 8.094-22.38.557-31.395 3.074-5.562 6.236-9.014 13.67-14.96C171.367 425.234 207.723 445.618 248 448V222.872c-53.236-2.918-98.77-34.734-121.164-80.048zM456 256.114c-.985 0-1.954.066-2.908.182-3.63-2.457-7.663-4.625-11.823-5.852-6.855-2.02-14.448-3.915-25.475-4.122-.97-23.125-5.35-45.168-12.545-65.427 6.412-3.557 11.02-7.167 15.204-10.674 6.228-5.215 10.73-13.277 13.548-19.546 1.308-.458 2.596-1.028 3.847-1.73 11.557-6.484 15.67-21.113 9.186-32.672-6.485-11.56-21.113-15.673-32.674-9.19-11.095 6.226-15.324 19.948-9.914 31.262-1.592 3.4-3.375 6.37-4.546 7.35-2.426 2.033-4.82 3.933-7.745 5.773-1.596-2.94-3.268-5.817-4.992-8.644-22.393 45.314-67.928 77.13-121.164 80.048V448c40.278-2.38 76.633-22.765 103.687-54.42 7.434 5.947 10.596 9.4 13.67 14.96-7.537 9.015-7.53 22.407.558 31.396 8.864 9.855 24.038 10.658 33.893 1.793 9.854-8.864 10.658-24.04 1.793-33.896-.87-.97-1.82-1.825-2.803-2.62-1.123-.928-1.873-1.365-1.873-1.365-3.724-13.303-12.44-25.313-26.605-36.318 15.31-25.74 25.445-56.21 28.612-89.224 7.207.115 12.05 1.292 17.095 2.774.51 12.806 11.046 23.032 23.976 23.032 13.255 0 24-10.745 24-24s-10.748-24-24.003-24z"/></svg>