<svg xmlns="http://www.w3.org/2000/svg" width="512" height="512" viewBox="0 0 512 512"><path d="M467.3 168.084c-1.804 0-3.515.33-5.07.962l-2.28 1.15-171.475 88.938-3.888 1.996s-.052.023-.052.047c-7.56 4.668-12.535 12.506-12.535 21.425v185.854c0 6.382 5.65 11.544 12.69 11.544 2.178 0 4.25-.513 6.065-1.404.155-.095.363-.188.52-.282l174.73-92.694.26-.14c8.24-4.505 13.734-12.743 13.734-22.106V179.582c0-6.36-5.7-11.498-12.7-11.498zM454.273 118.52l-181.7-81.73S261.913 32 255.996 32s-16.526 4.79-16.526 4.79L57.614 118.52s-7.99 3.293-7.99 9.48c0 6.562 8.3 11.5 8.3 11.5l182.583 96.37 2.902 1.48c3.783 1.687 8.076 2.65 12.586 2.65 4.56 0 8.915-.964 12.742-2.697l2.54-1.315 182.892-96.536s7.508-4.036 7.508-11.453c0-6.5-7.405-9.48-7.405-9.48zM227.466 261.178l-3.992-2.043-171.432-88.938-2.28-1.15c-1.495-.634-3.258-.962-5.07-.962-6.998 0-12.69 5.138-12.69 11.497v183.792c0 9.388 5.484 17.602 13.726 22.105l.208.14 174.74 92.694c1.917 1.08 4.198 1.687 6.635 1.687 6.99 0 12.69-5.16 12.69-11.543V282.603c0-8.92-4.976-16.757-12.534-21.425z"/></svg>