<svg xmlns="http://www.w3.org/2000/svg" width="512" height="512" viewBox="0 0 512 512"><path d="M357.275 125.525c-2.21-3.986-9.498-11.837-13.977-13.325-5.98-.92-2.398 4.413-2.398 6.7-1.543 1.157-3.94 2.454-5.102 4-.7.6 1.704 6.103 6.337 4.335s1.964 1.8 5.164 8.865 9.606 7.207 12.49 5.067c3.654-2.712-.504-12.012-2.515-15.642zM375.8 170.6c0 .006-.004.01-.005.017 0 .012.002.012.005-.017zM434.6 197.1c.4 0-1.8-.4 0 0z"/><path d="M256 32C132.3 32 32 132.3 32 256s100.3 224 224 224 224-100.3 224-224S379.7 32 256 32zm-82.6 397.424c-5.516-3.133-9.375-7.56-10.962-15.93-3.947-20.807-.303-32.066 17.962-44.244 8.604-5.736 10.022-12.672 16.9-19.55 1.685-2.14 6.21-10.374 9.2-10.8 3.637-.78 13.71-2.527 15.7-6.5 3.79-5.146 12.127-27.398 15.8-29.602 5.997-3.925 14.42-15.96 8.3-23.1-7.02-8.643-16.8-8.766-25.9-13.3-8.015-4.01-11.574-22.282-17.7-28.602-11.912-12.136-30-19.2-45-26.7-8.116-3.25-7.344-4.256-13.7 2.1-8.162 8.162-20.093-2.067-21.3-10.5-.09-2.802-3.296-18.216-1.4-19.4 17.956-11.225-8.328-8.64-10.5-13.8-5.355-14.993 13.008-26.86 25.4-28.1 13.885-1.738 16.784 21.895 22.1 19.9 2.556-1.276 2.566-12.394 2.9-14.8 1.267-8.03 3.588-9.273 11.4-12.175 9.098-3.378 16.063-7.616 25.7-9.224 11.006-3.195 20.317-1.533 28.8-8.6 3.888-2.915 6.704 1.58 10.4 2.4 8 1.6 9.7-11.1 9.7-15.9-.034-4.665 1.265-8.63-4.7-13.6-7.806-6.07-19.03-.87-25.3 5.4-7.574 7.035-16.357 6.55-13.8-5.6.634-4.433 10.21-9.587 14-12 3.7-2.222 5.904 2.522 10.4 1.4 6.58-1.463 9.034 4.735 16.8 4.8 3.233-.73 14.796-6.88 8.614-19.366.93-.01 1.856-.03 2.786-.03 1.855 0 3.707.034 5.555.086C264.36 72.966 255.59 80.53 260 91.7c8.79 21.475 15.992 3.014 24.7-7 2.85-2.85 4.633-2.21 9.3-3.1 2.896-.483 7.055-9.27 8.393-11.982 20.058 4.956 39.12 13.127 56.567 24.255-7.447.792-9.348-1.396-9.234 7.377.042 3.317.297 13.32 5.274 14.15 8.277.975 6.78 6.832 14.55 7.85 7.444.976 2.817 7.553 5.852 14.05 3.393 10.227-19.806 13.302-24.302 14.8-13.64 4.554 6.34 24.41 15.2 22.3 2.817-.704 12.215-1.902 12.867-5.067-.01-.323-1.836-11.012-.867-12.233 1.533-1.934 5.123-2.946 10.776.255 13.374 7.573 20.146 25.7 35.897 29.295 2.146.49 5.86-.15 8.494 2.033 2.23 3.015 7.92 8.416 1.13 8.416-9.016-2.004-13.78.858-21.197-4.875-7.733-5.977-12.543-10.89-22.75-11.076-8.79-.16-16.68-3.82-25.738-2.35-5.05.818-10.038 2.81-14.912 4.3-4.617 1.537-5.51 9.764-10.2 10.7-19.467 4.58-15.26 23.168-18.773 37.912-1.35 5.662-6.025 21.003-.926 26.087 9.12 8.853 19.784 21.034 33.177 22.962 7.206 1.037 22.954-4.576 27.823 2.737 2.062 4.103 7.447-3.03 8.9.6 3.663 10.988-4.263 18.186-4.337 28.55-.11 15.204 9.178 20.57-3.263 34.15-13.642 13.606-4.333 30.787-11.9 47-4.042 8.336-4.808 19.893-10.872 23.776-13.32 8.532-27.7 15.4-42.714 20.384-26.627 8.838-55.155 11.672-83.017 8.456-14.62-1.688-29.04-5.057-42.88-10.065-3.77-1.362-7.28-2.504-10.472-3.703-2.402-1.028-4.786-2.097-7.146-3.223zm-41.7-27.095c-.47-.398-.936-.797-1.4-1.2-3.444-2.99-6.802-6.112-10.06-9.37-3.388-3.388-6.634-6.88-9.734-10.47l-.105-.124c-.636-.738-1.256-1.486-1.88-2.234C56.833 316.472 49.26 225.004 92.6 155.1c6.078 6.078-4.1 18.024 7.5 26 5.124 3.606 10.02 2.16 9 8.8-.993 6.45 5.355 6.335 6.3 12 2.842 12.43 19.207 18.642 9.9 32.6-9.118 12.625-16.992 26.73-10.1 42.8 2.254 5.86 7.92 11.858 12.222 16.244 7.813 7.966 7.377 3.188 7.377 13.256-.157 4.373 5.26 8.897 4.7 11.7-1.002 8.01-2.905 15.93-3.9 23.9-1.793 28.638-.13 56.662 21.3 78.1-7.97-4.806-15.637-10.25-22.97-16.29-.747-.62-1.49-1.25-2.23-1.88z"/></svg>