<svg xmlns="http://www.w3.org/2000/svg" width="512" height="512" viewBox="0 0 512 512"><path d="M256.085 32C132.295 32 31.99 67.817 31.99 112c0 8.476 3.728 16.642 10.572 24.31l-.06.007C74.407 175.213 192 313 192 352v87c0 22.688 28.89 41 64 41s64-18.312 64-41v-83.088c0-1.24.008-2.54.008-3.912C320.008 313 436 177.432 471 134.062v-.002c6-7.007 8.977-14.408 8.977-22.06 0-44.183-100.102-80-223.892-80zm.093 128c-92.058 0-176.112-22-176.112-48s83.053-48 176.112-48c93.06 0 176.11 22.413 176.11 48s-84.052 48-176.11 48z"/></svg>