<svg xmlns="http://www.w3.org/2000/svg" width="512" height="512" viewBox="0 0 512 512"><path d="M416.35 256.046c-.002-21.013 13.142-38.948 31.65-46.062-4.887-20.466-12.957-39.7-23.664-57.14-6.375 2.837-13.23 4.255-20.082 4.255-12.62 0-25.238-4.812-34.87-14.443-14.864-14.863-18.25-36.846-10.18-54.97C341.767 76.973 322.54 68.895 302.073 64 294.97 82.53 277.027 95.69 256 95.69c-21.025 0-38.97-13.16-46.073-31.69-20.466 4.895-39.693 12.973-57.128 23.688 8.067 18.122 4.682 40.104-10.182 54.97-9.63 9.63-22.25 14.443-34.87 14.443-6.855 0-13.707-1.418-20.084-4.254-10.706 17.438-18.778 36.67-23.664 57.138 18.51 7.112 31.652 25.05 31.652 46.062 0 21.008-13.132 38.936-31.63 46.054 4.898 20.466 12.976 39.692 23.692 57.128 6.36-2.82 13.198-4.232 20.032-4.232 12.622 0 25.24 4.812 34.87 14.443 14.842 14.84 18.24 36.78 10.216 54.888 17.438 10.71 36.664 18.783 57.13 23.673 7.128-18.478 25.046-31.595 46.038-31.595 20.992 0 38.91 13.115 46.037 31.596 20.468-4.89 39.693-12.963 57.132-23.674-8.024-18.106-4.627-40.046 10.215-54.887 9.63-9.633 22.248-14.445 34.868-14.445 6.836 0 13.67 1.41 20.033 4.233 10.716-17.436 18.794-36.662 23.692-57.128-18.498-7.12-31.63-25.048-31.63-46.054zM256.9 335.9c-44.3 0-80-35.9-80-80s35.7-80 80-80 80 35.9 80 80-35.7 80-80 80z"/></svg>