<svg xmlns="http://www.w3.org/2000/svg" width="512" height="512" viewBox="0 0 512 512"><path d="M462.686 279.37c.132-1.183.257-2.366.37-3.555l.01-.117c.61-6.485.934-13.053.934-19.698 0-114.863-93.13-208-208-208-7.95 0-15.792.462-23.512 1.33l-.27.03v.002C135.208 60.41 58.442 138.2 48.988 235.687h-.003c-.072.748-.13 1.497-.195 2.246-.136 1.576-.253 3.157-.353 4.743-.026.418-.056.835-.08 1.254-.064 1.12-.116 2.245-.163 3.37-.01.282-.02.563-.032.844C48.065 250.75 48 253.368 48 256c0 114.863 93.137 208 208 208 2.627 0 5.24-.065 7.843-.162.293-.01.586-.02.878-.033 1.11-.046 2.22-.098 3.325-.16.454-.025.906-.058 1.36-.086 1.603-.104 3.2-.223 4.794-.36.703-.062 1.41-.116 2.112-.185v-.004c97.494-9.45 175.28-86.215 186.326-183.228h.004c.016-.137.028-.275.044-.413zM446.666 256c0 2.568-.067 5.122-.168 7.666-10.334-.468-20.552-1.69-30.614-3.664l6.11-19.056-15.232-4.884-6.488 20.235c-7.59-2.112-15.08-4.65-22.442-7.638-4.976-2.02-9.85-4.224-14.625-6.605l11.518-17.003-13.247-8.974-12.36 18.246c-12.24-7.35-23.702-15.977-34.304-25.812l14.73-14.73-11.313-11.313-14.73 14.73c-9.554-10.298-17.963-21.41-25.174-33.255l18.487-12.522-8.972-13.246-17.323 11.735c-2.597-5.13-4.998-10.375-7.174-15.74-2.843-7.01-5.276-14.134-7.327-21.352l20.812-6.673-4.885-15.234-19.71 6.32c-2.105-10.423-3.41-21.014-3.897-31.73 2.544-.1 5.097-.166 7.665-.166C361.133 65.335 446.666 150.87 446.666 256zm-381.33 0c0-1.317.024-2.63.05-3.94 9.065.56 18.04 1.688 26.892 3.41l-7.115 22.19 15.235 4.886 7.5-23.39c7.692 2.127 15.28 4.695 22.738 7.72 5.175 2.1 10.24 4.404 15.197 6.896l-13.405 19.79 13.246 8.973 14.22-20.992c12.037 7.28 23.32 15.793 33.764 25.483l-16.853 16.853 11.313 11.313 16.854-16.854c9.968 10.743 18.7 22.368 26.114 34.795l-20.753 14.058 8.972 13.246 19.473-13.19c2.283 4.61 4.4 9.316 6.347 14.115 3.16 7.795 5.834 15.73 8.016 23.778l-22.83 7.32 4.883 15.233 21.53-6.903c1.61 8.506 2.68 17.122 3.216 25.822-1.312.026-2.623.05-3.94.05-105.13 0-190.664-85.535-190.663-190.665zm210.557 189.63c-.62-9.975-1.91-19.912-3.86-29.747l24.1-7.727-4.883-15.232-22.896 7.34c-3.946-14.414-9.356-28.51-16.234-42.053l20.172-13.663-8.973-13.246-18.99 12.863c-7.887-13.094-17.232-25.552-28.04-37.145l17.082-17.08-11.313-11.314-17.083 17.08c-11.288-10.52-23.393-19.66-36.108-27.413l12.695-18.742-13.246-8.972-13.447 19.85c-13.548-6.974-27.66-12.467-42.094-16.494l7.157-22.325-15.235-4.885-7.52 23.452c-10.18-2.068-20.477-3.424-30.81-4.067 9.168-88.037 78.492-158.454 166.023-169.31.574 11.857 2.095 23.675 4.543 35.338l-25.935 8.316 4.885 15.235 24.903-7.985c4.046 14.144 9.505 27.967 16.387 41.246l-22.322 15.12 8.973 13.247 21.236-14.385c7.688 12.528 16.735 24.455 27.116 35.59l-19.204 19.204 11.313 11.314 19.203-19.205c11.447 10.67 23.735 19.922 36.647 27.746l-14.555 21.486 13.248 8.974 15.328-22.628c13.28 6.79 27.1 12.155 41.23 16.118l-8.168 25.477 15.232 4.884 8.525-26.59c11.3 2.312 22.743 3.754 34.223 4.31-10.856 87.53-81.273 156.853-169.31 166.022z"/></svg>