<svg xmlns="http://www.w3.org/2000/svg" width="512" height="512" viewBox="0 0 512 512"><path d="M489.373 256L448 297.373 405.627 256l-10.814 10.813L448 320l52.687-52.687"/><path d="M459.994 255.51c-.002-.578.013-1.158.007-1.734l-.028-.003C458.772 142.31 367.742 52 256 52c-73.59 0-141.753 39.878-177.888 104.07l13.943 7.85C125.36 104.753 188.18 68 256 68c103.273 0 187.355 83.708 187.985 186.836.038 6.882-.28 13.83-1.017 20.83l15.912 1.675c.755-7.167 1.105-14.285 1.11-21.34h.01c0-.164-.006-.327-.006-.49zM419.944 348.08C386.64 407.247 323.82 444 256 444c-103.475 0-187.688-84.032-187.993-187.437-.015-6.686.31-13.434 1.024-20.23l-15.91-1.674c-.755 7.167-1.105 14.285-1.11 21.34H52c0 .472.015.94.018 1.41.006.975-.006 1.952.015 2.924l.022-.003C54.37 370.826 144.962 460 256 460c73.59 0 141.753-39.878 177.888-104.07l-13.944-7.85z"/><path d="M64 192l-52.687 52.687L22.627 256 64 214.627 105.373 256l11.314-11.313"/></svg>