<svg xmlns="http://www.w3.org/2000/svg" width="512" height="512" viewBox="0 0 512 512"><path d="M128 64c-35.29 0-64 28.71-64 64 0 23.637 12.89 44.307 32 55.39v177.22C76.89 371.693 64 392.363 64 416c0 35.29 28.71 64 64 64s64-28.71 64-64c0-23.637-12.89-44.307-32-55.39V183.39c19.11-11.083 32-31.753 32-55.39 0-35.29-28.71-64-64-64zm0 384c-17.673 0-32-14.327-32-32s14.327-32 32-32 32 14.327 32 32-14.327 32-32 32zm0-288c-17.673 0-32-14.327-32-32s14.327-32 32-32 32 14.327 32 32-14.327 32-32 32zM415 360.034V204.99c0-33.988-10.49-61.003-31.18-80.295-22.11-20.618-54.314-30.388-95.82-29.106V32l-96 96 96 96v-64c26.5 0 42.67 2.642 52.175 11.504C347.358 178.202 351 189.468 351 204.99v156.195c-18.562 11.217-31 31.59-31 54.814 0 35.29 28.71 64 64 64s64-28.71 64-64c0-24.05-13.338-45.03-33-55.966zM384 448c-17.673 0-32-14.327-32-32s14.327-32 32-32 32 14.327 32 32-14.327 32-32 32z"/></svg>