<svg xmlns="http://www.w3.org/2000/svg" width="512" height="512" viewBox="0 0 512 512"><path d="M0 96v256h512V96H0zm192.508 224H80.128c0-26.582-21.548-48.13-48.128-48.13V192c35.346 0 64-28.653 64-64h96.51C172.575 151.455 160 185.767 160 224s12.576 72.545 32.508 96zm105.58-58.752c-2.58 4.182-5.977 7.602-10.188 10.257-4.214 2.655-9.004 4.607-14.375 5.835-2.812.644-5.654 1.12-8.524 1.432V288h-18v-9.43c-2.767-.357-5.46-.863-8.07-1.54-5.69-1.476-10.642-3.66-14.852-6.71-4.214-3.047-7.584-6.803-10.11-11.573-2.42-4.56-3.728-10.747-3.928-15.747h19.735c.096 3 .828 6.532 2.2 9.184 1.474 2.853 3.527 4.883 6.16 6.7 2.573 1.78 5.533 3.082 8.864 3.92v-34.36c-2.437-.6-5.017-1.244-7.76-1.937-4.845-1.18-8.872-2.73-12.084-4.646-3.214-1.917-5.766-4.056-7.66-6.416-1.897-2.36-3.24-4.867-4.03-7.522-.79-2.656-1.185-5.358-1.185-8.113 0-5.31 1.187-9.906 3.557-13.792 2.368-3.883 5.502-7.104 9.398-9.662 3.895-2.556 8.32-4.448 13.27-5.68 2.154-.533 4.32-.944 6.494-1.247V160h18v9.5c2.46.352 4.855.837 7.18 1.472 5.214 1.427 9.795 3.563 13.743 6.414 3.95 2.854 7.083 6.364 9.4 10.542 2.11 3.81 3.258 8.072 3.445 13.072h-19.866c-.753-6-3.175-10.326-7.274-12.923-1.966-1.246-4.186-2.196-6.63-2.887v30.368c2.59.64 5.15 1.268 7.655 1.878 3.42.836 5.87 1.453 7.346 1.844 3.685 1.083 6.896 2.558 9.636 4.425 2.737 1.87 5.028 4.008 6.873 6.417 1.84 2.41 3.21 4.992 4.106 7.744.893 2.753 1.343 5.51 1.343 8.262 0 5.9-1.292 10.942-3.87 15.12zM480 271.87c-26 0-48 21.548-48 48.13H319.49c19.934-23.455 32.51-57.767 32.51-96s-12.576-72.545-32.51-96H416c0 35.347 28.653 64 64 64v79.87z"/><circle cx="96" cy="224" r="32"/><circle cx="416" cy="224" r="32"/><path d="M272.893 235.21c-2.395-.823-5.03-1.618-7.893-2.39v30.857c1.592-.23 3.07-.547 4.416-.96 3.053-.933 5.53-2.138 7.425-3.612s3.265-3.17 4.108-5.09c.842-1.916 1.263-3.857 1.263-5.826 0-4.032-.974-7.007-2.92-8.925-1.95-1.916-4.084-3.266-6.397-4.055zM236.004 190.96c-1.318 1.77-1.975 3.98-1.975 6.637 0 3.738 1.235 6.663 3.71 8.776 2.378 2.034 5.47 3.583 9.26 4.66V184.68c-2.18.45-4.192 1.135-6.02 2.078-2 1.032-3.66 2.433-4.976 4.203zM0 384h512v32H0z"/></svg>