<svg xmlns="http://www.w3.org/2000/svg" width="512" height="512" viewBox="0 0 512 512"><circle cx="432" cy="160" r="64"/><path d="M225 160H33.8c-11.1 0-13.9 3-11.3 10.5 1.5 4.4 8.4 8.1 12.5 10.2 11 5.8 163.8 89.1 169.5 92.1 5.7 3 11.5 4.4 20.5 4.4s14.8-1.4 20.5-4.4c3.79-1.995 72.625-39.497 121.56-66.107C357.593 193.55 352 177.433 352 160H225z"/><path d="M293.2 273.3l82.2 92.5c2 2 2.898 4.4 1.8 5.6-1.2 1.1-3.8.5-5.9-1.4l-98.6-83.2c-14.9 9.602-25.4 16.2-27.2 17.2-7.7 3.9-13.1 4.4-20.5 4.4s-12.8-.5-20.5-4.4c-1.9-1-12.3-7.6-27.2-17.2L78.7 370c-2 2-4.7 2.6-5.9 1.4-1.2-1.1-.3-3.6 1.7-5.6l82.1-92.5c-48.7-31.5-123.1-83.9-131.3-88.1-8.8-4.5-9.3.8-9.3 4.9v205c0 9.3 13.7 20.9 23.5 20.9h371c9.8 0 21.5-11.7 21.5-20.9V240c-21.726 0-41.416-8.673-55.832-22.73-26 17.903-57.808 39.755-82.97 56.03z"/></svg>