<svg xmlns="http://www.w3.org/2000/svg" width="512" height="512" viewBox="0 0 512 512"><path d="M229 288c1-18 0-38 8-55 2-5 1-10 1-15-4-21-14-40-15-60 0-1.39 1.004-4.77 1.005-6.157-3.216 2.234-7.607 4.024-11.005 5.157-20 6-17.51 2.573-34.51 13.573l-11.933 7.228c16.343-17.938 38.528-24.78 56.525-38.713.194-15.438.858-30.677 3.137-45.84-40.61-39.75-104.435-38.98-144.097 2.323-45.497 47.344-45.497 124.1 0 171.445l152.85 159.096c-.086-10.655-.444-21.175-1.973-31.11-6-36-4-71-4-107z"/><path d="M322 301c-11-26-33-44-63-50-.85 0-1.88-.543-2.936-1.32-.023.108-.04.214-.064.32-11 48-23 94-21 142 0 12.227 3.983 25.117 3.833 38.13L256 448l104-108.25c-14.847-10.48-29.572-21.13-38-38.75z"/><path d="M429.874 95.57c-40.426-42.094-105.99-42.094-146.408 0L264 115.403c.075 13.175.213 26.202-3 38.597-2 10-19 19-16 31 3.003 13.213 8.166 25.705 10.732 38.56 15.282 8.524 29.04 19.336 41.268 32.44 22.8 26.766 37.747 57.46 65.283 81.37l67.59-70.354c45.502-47.345 45.502-124.102 0-171.446z"/></svg>