<svg xmlns="http://www.w3.org/2000/svg" width="512" height="512" viewBox="0 0 512 512"><path d="M366.194 212.122C367.38 205.594 368 198.87 368 192c0-61.856-50.145-112-112-112-61.857 0-112 50.144-112 112 0 6.87.62 13.594 1.805 20.122C98.618 225.302 64 268.606 64 320c0 61.855 50.144 112 112 112 31.34 0 59.67-12.88 80-33.627C276.328 419.12 304.658 432 336 432c61.854 0 112-50.145 112-112 0-51.394-34.62-94.697-81.806-107.878zm-110.196 183.25c-.484.496-.98.983-1.475 1.47-3.2-3.394-6.19-6.987-8.95-10.76-13.562-18.524-21.575-41.365-21.575-66.082 0-6.87.622-13.594 1.807-20.12-35.75-9.987-64.28-37.26-76.014-72.244-1.593-4.752-2.87-9.647-3.82-14.66.94-.29 1.88-.588 2.834-.853-.046-.252-.085-.507-.13-.76 4.187-1.048 8.464-1.866 12.82-2.43 4.75-.614 9.59-.933 14.506-.933 31.34 0 59.67 12.878 80 33.626C276.328 220.878 304.658 208 336 208c4.915 0 9.756.32 14.505.934 4.355.563 8.633 1.38 12.816 2.43-.042.252-.08.506-.128.76.955.266 1.895.563 2.838.854-.95 5.012-2.23 9.907-3.822 14.658-11.732 34.983-40.266 62.257-76.013 72.242 1.185 6.528 1.807 13.253 1.807 20.122 0 24.717-8.014 47.558-21.574 66.083-2.762 3.772-5.752 7.367-8.953 10.76-.496-.487-.99-.974-1.477-1.47z"/><path d="M270.506 303.067c-4.75.614-9.59.934-14.506.934s-9.758-.318-14.506-.933c-.982 5.498-1.496 11.156-1.496 16.933 0 19.58 5.898 37.806 16.002 53.005 10.104-15.2 16.002-33.425 16.002-53.005 0-5.776-.514-11.435-1.496-16.933zM346.313 224.555c-3.39-.364-6.83-.556-10.314-.556-27.355 0-52.07 11.5-69.572 29.916 6.725 9.188 12.088 19.434 15.78 30.448 29.756-8.455 53.666-30.936 64.105-59.81zM266.314 287.445c-2.625-7.262-6.105-14.12-10.314-20.45-4.21 6.33-7.69 13.188-10.314 20.45 3.39.364 6.83.556 10.314.556s6.925-.19 10.314-.555zM176 224c-3.484 0-6.925.19-10.314.555 10.44 28.873 34.35 51.354 64.106 59.81 3.693-11.015 9.055-21.26 15.78-30.448C228.07 235.5 203.353 224 176 224z"/></svg>