<svg xmlns="http://www.w3.org/2000/svg" width="512" height="512" viewBox="0 0 512 512"><path d="M443.827 195.5c-4.383-11.73-11.753-20.212-21.317-24.524C418.12 169 413.515 168 408.822 168c-20.025 0-40.372 18.667-50.632 46.454-12.698 34.42-5.315 68.135 17.173 78.423 4.522 2.07 9.365 3.123 14.394 3.123 20.396 0 41.126-17.12 51.58-42.596 7.9-19.283 8.83-40.927 2.49-57.904zM153.81 214.454C143.55 186.667 123.205 168 103.18 168c-4.694 0-9.3 1-13.69 2.976-9.565 4.312-16.934 12.794-21.317 24.524-6.34 16.977-5.41 38.62 2.49 57.904C81.118 278.88 101.848 296 122.243 296c5.03 0 9.872-1.052 14.395-3.123 22.488-10.288 29.87-44.003 17.173-78.423zM198.347 210.6c1.855.082 3.727.03 5.563-.15 10.787-1.06 20.54-6.594 28.207-16.008 12.37-15.19 15.806-38.974 13.2-63.44-3.98-37.702-23.848-65.84-50.54-67.002 0 0-3.812.008-5.75.193-11.777 1.164-22.482 7.283-30.958 17.695-12.292 15.1-18.2 37.57-15.804 60.104 3.936 37.277 28.57 67.412 56.08 68.61zM256 240c-64 0-128 76.074-128 149.128 0 21.798 10.932 39.33 21.667 46.517C162.925 444.515 172.27 448 191.704 448c23.093 0 29.325-8.078 40.136-15.205 7.82-5.152 14.572-9.605 24.16-9.605s16.343 4.453 24.16 9.605C290.973 439.922 297.204 448 320.298 448c19.434 0 28.778-3.484 42.036-12.355C373.068 428.46 384 410.925 384 389.128 384 316.074 320 240 256 240zM308.28 210.265c1.837.182 3.71.232 5.564.15 27.51-1.195 52.146-31.33 56.08-68.606 2.396-22.535-3.513-45.005-15.803-60.105-8.475-10.412-18.782-16.228-30.56-17.392-1.938-.186-6.145-.312-6.145-.312-26.693 1.162-46.56 29.116-50.542 66.818-2.604 24.466.83 48.248 13.2 63.44 7.668 9.413 17.42 14.948 28.208 16.007z"/></svg>