<svg xmlns="http://www.w3.org/2000/svg" width="512" height="512" viewBox="0 0 512 512"><path d="M256 48C141.137 48 48 141.136 48 256s93.137 208 208 208c114.87 0 208-93.138 208-208S370.87 48 256 48zm124.797 352.032c-4.158 3.608-8.48 7.03-12.942 10.272-21.704-50.015-50.938-95.795-87.168-136.465-15.118 15.727-31.203 30.517-48.156 44.28 27.66 35.363 44.917 79.253 47.19 127.068-5.252.655-10.57 1.086-15.944 1.303-1.103-24.726-6.5-48.72-16.114-71.45-7.158-16.92-16.43-32.664-27.68-47.036-31.104 23.733-64.923 44.093-100.91 60.526-3.883-4.01-7.592-8.19-11.115-12.53 36.28-16.133 70.29-36.27 101.705-60.185-2.14-2.34-4.33-4.64-6.584-6.895-19.107-19.107-41.354-34.107-66.12-44.583-22.015-9.312-46.212-14.964-71.45-16.108.217-5.38.648-10.704 1.303-15.96 61.62 2.93 116.714 30.753 155.45 73.638 13.803-11.208 27.076-23.167 39.78-35.87 2.637-2.638 5.237-5.303 7.81-7.988-3.222-3.4-6.488-6.767-9.81-10.09-45.888-45.886-99.138-82.145-158.333-107.832 3.243-4.46 6.665-8.782 10.272-12.94 63.95 28.388 121.21 69.102 168.766 119.133 10.71-11.888 20.824-24.215 30.32-36.964-40.348-37.27-66.957-89.188-71.39-147.312 5.274-.45 10.605-.692 15.99-.702 1.74 22.238 6.975 43.838 15.672 64.4 10.476 24.768 25.476 47.014 44.583 66.12 1.5 1.5 3.026 2.966 4.563 4.414 20.226-29.03 37.38-60.104 51.287-92.987.285-.675.555-1.354.835-2.03 4.42 3.427 8.68 7.043 12.78 10.836C371 149.598 353.25 181.31 332.56 210.812c15.026 12.13 31.59 22.068 49.48 29.635 20.63 8.727 42.304 13.978 64.62 15.698-.005 5.387-.244 10.717-.69 15.99-46.277-3.478-88.63-21.017-122.8-48.358-9.922 13.275-20.455 26.067-31.556 38.336 36.475 40.77 66.69 87.247 89.18 137.92z"/></svg>