<svg xmlns="http://www.w3.org/2000/svg" width="512" height="512" viewBox="0 0 512 512"><path d="M443.827 195.5c-4.383-11.73-11.753-20.212-21.317-24.524C418.12 169 413.515 168 408.822 168c-20.025 0-40.372 18.667-50.632 46.454-12.698 34.42-5.315 68.135 17.173 78.423 4.522 2.07 9.365 3.123 14.394 3.123 20.396 0 41.126-17.12 51.58-42.596 7.9-19.283 8.83-40.927 2.49-57.904zm-17.613 50.795c-7.836 18.898-22.994 32.098-36.862 32.098-2.81 0-5.488-.57-7.968-1.694-14.12-6.395-17.862-31.06-8.518-56.153 7.775-20.817 22.448-35.355 35.683-35.355 2.51 0 4.978.533 7.34 1.588 6.88 3.067 10.62 9.712 12.55 14.745 4.91 12.807 4.078 29.543-2.226 44.77zM153.81 214.454C143.55 186.667 123.205 168 103.18 168c-4.694 0-9.3 1-13.69 2.976-9.565 4.312-16.934 12.794-21.317 24.524-6.34 16.977-5.41 38.62 2.49 57.904C81.118 278.88 101.848 296 122.243 296c5.03 0 9.872-1.052 14.395-3.123 22.488-10.288 29.87-44.003 17.173-78.423zm-23.194 62.244c-2.48 1.125-5.16 1.694-7.968 1.694-13.868 0-29.026-13.2-36.862-32.098-6.304-15.227-7.136-31.963-2.226-44.77 1.93-5.034 5.67-11.68 12.55-14.746 2.362-1.055 4.83-1.588 7.34-1.588 13.235 0 27.908 14.538 35.684 35.355 9.345 25.095 5.603 49.76-8.518 56.153zM198.347 210.6c1.855.082 3.727.03 5.563-.15 10.787-1.06 20.54-6.594 28.207-16.008 12.37-15.19 15.806-38.974 13.2-63.44-3.98-37.702-23.848-65.84-50.54-67.002 0 0-3.812.008-5.75.193-11.777 1.164-22.482 7.283-30.958 17.695-12.292 15.1-18.2 37.57-15.804 60.104 3.936 37.277 28.57 67.412 56.08 68.61zm-27.3-118.77c3.923-4.738 10.51-10.576 19.62-11.475 1.143-.113 2.288-.146 3.404-.098 18.208.792 31.86 23.27 34.937 52.428 2.146 20.15-.148 40.055-9.845 51.78-4.874 5.897-10.556 9.203-16.88 9.824-1.082.103-2.168.132-3.23.086-19.257-.838-37.414-25.09-40.473-54.067-1.97-18.53 2.693-36.654 12.467-48.48zM256 240c-64 0-128 76.074-128 149.128 0 21.798 10.932 39.33 21.667 46.517C162.925 444.515 172.27 448 191.704 448c23.093 0 29.325-8.078 40.136-15.205 7.82-5.152 14.572-9.605 24.16-9.605s16.343 4.453 24.16 9.605C290.973 439.922 297.204 448 320.298 448c19.434 0 28.778-3.484 42.036-12.355C373.068 428.46 384 410.925 384 389.128 384 316.074 320 240 256 240zm97.963 180.776c-10.964 7.337-17.366 9.778-33.666 9.778-14.225 0-18.624-3.2-25.91-8.51-1.85-1.344-3.76-2.736-5.947-4.177-8.62-5.682-18.39-12.123-32.44-12.123s-23.82 6.44-32.437 12.12c-2.19 1.443-4.1 2.836-5.947 4.18-7.287 5.31-11.686 8.51-25.91 8.51-16.3 0-22.704-2.44-33.668-9.778C152.395 417 144 405.456 144 389.128c0-30.277 13.377-64.23 35.783-90.823 10.886-12.92 23.517-23.6 36.526-30.885C229.712 259.917 243.066 256 256 256c12.934 0 26.287 3.917 39.69 11.42 13.01 7.285 25.64 17.964 36.526 30.885C354.623 324.895 368 358.85 368 389.128c0 16.328-8.395 27.872-14.037 31.648zM308.28 210.265c1.837.182 3.71.232 5.564.15 27.51-1.195 52.146-31.33 56.08-68.606 2.396-22.535-3.513-45.005-15.803-60.105-8.475-10.412-18.782-16.228-30.56-17.392-1.938-.186-6.145-.312-6.145-.312-26.693 1.162-46.56 29.116-50.542 66.818-2.604 24.466.83 48.248 13.2 63.44 7.668 9.413 17.42 14.948 28.208 16.007zM283.187 132.5c3.076-29.155 16.73-51.635 34.936-52.427 1.115-.048 2.26-.016 3.404.098 9.11.9 15.696 6.737 19.62 11.477 9.773 11.825 14.435 29.948 12.467 48.48-3.06 28.976-21.216 53.228-40.474 54.066-1.062.046-2.147.017-3.23-.087-6.324-.62-12.007-3.927-16.88-9.825-9.696-11.724-11.99-31.63-9.844-51.78z"/></svg>