<svg xmlns="http://www.w3.org/2000/svg" width="512" height="512" viewBox="0 0 512 512"><path d="M256.9 159.9c-25.7 0-49.8 10-67.9 28.1s-28.1 42.2-28.1 67.9c0 25.7 10 49.7 28.1 67.9 18.1 18.1 42.3 28.1 67.9 28.1 25.7 0 49.8-10 67.9-28.1 18.1-18.102 28.1-42.2 28.1-67.9 0-25.7-10-49.7-28.1-67.9-18.1-18.1-42.2-28.1-67.9-28.1zm0 176c-44.3 0-80-35.9-80-80s35.7-80 80-80 80 35.9 80 80-35.7 80-80 80z"/><path d="M201.787 82.828c4.458 6.628 10.12 12.406 16.775 17.07C229.574 107.61 242.52 111.69 256 111.69c13.48 0 26.428-4.078 37.44-11.793 6.653-4.663 12.315-10.44 16.772-17.068 10.326 3.227 20.334 7.377 29.927 12.41-1.533 7.84-1.615 15.93-.204 23.933 2.333 13.235 8.604 25.27 18.133 34.798 12.334 12.337 28.736 19.13 46.184 19.13 4.242 0 8.424-.4 12.52-1.195 5.032 9.6 9.18 19.613 12.405 29.947-6.623 4.46-12.397 10.12-17.055 16.776-7.705 11.008-11.777 23.946-11.776 37.418 0 13.467 4.068 26.4 11.767 37.406 4.653 6.65 10.42 12.312 17.036 16.77-3.232 10.34-7.387 20.355-12.428 29.958-4.08-.79-8.246-1.187-12.472-1.187-17.448 0-33.85 6.795-46.183 19.13-9.515 9.515-15.78 21.528-18.123 34.74-1.415 7.99-1.343 16.066.176 23.896-9.607 5.04-19.627 9.19-29.967 12.42-4.46-6.61-10.12-12.374-16.77-17.022-11-7.69-23.93-11.754-37.387-11.754-13.458 0-26.386 4.064-37.386 11.755-6.65 4.647-12.31 10.41-16.77 17.02-10.34-3.228-20.36-7.38-29.967-12.42 1.52-7.83 1.59-15.906.176-23.895-2.342-13.214-8.608-25.228-18.123-34.74-12.335-12.337-28.737-19.13-46.185-19.13-4.226 0-8.39.395-12.47 1.186-5.04-9.6-9.196-19.617-12.43-29.957 6.616-4.46 12.384-10.12 17.037-16.77 7.7-11.005 11.77-23.94 11.77-37.41 0-13.47-4.073-26.41-11.778-37.417-4.658-6.654-10.432-12.316-17.054-16.776 3.225-10.333 7.372-20.346 12.405-29.946 4.096.796 8.277 1.196 12.52 1.196 17.447 0 33.85-6.794 46.186-19.13 9.53-9.53 15.8-21.563 18.134-34.8 1.41-8.002 1.33-16.092-.203-23.93 9.595-5.033 19.6-9.183 29.927-12.412M302.074 64C294.97 82.53 277.027 95.69 256 95.69c-21.025 0-38.97-13.16-46.073-31.69-20.466 4.895-39.692 12.973-57.128 23.688 8.067 18.122 4.68 40.104-10.183 54.97-9.63 9.63-22.25 14.443-34.87 14.443-6.854 0-13.706-1.418-20.083-4.254-10.706 17.438-18.777 36.67-23.664 57.138 18.51 7.112 31.652 25.05 31.652 46.062 0 21.008-13.133 38.936-31.63 46.054 4.897 20.466 12.976 39.692 23.692 57.128 6.36-2.82 13.197-4.232 20.03-4.232 12.622 0 25.24 4.812 34.872 14.443 14.84 14.84 18.238 36.78 10.215 54.888 17.44 10.71 36.665 18.783 57.132 23.673 7.127-18.478 25.046-31.595 46.037-31.595 20.99 0 38.91 13.115 46.036 31.596 20.468-4.89 39.693-12.963 57.132-23.674-8.023-18.106-4.626-40.046 10.216-54.887 9.63-9.633 22.248-14.445 34.868-14.445 6.836 0 13.67 1.41 20.033 4.233C435 341.792 443.08 322.566 447.977 302.1c-18.498-7.118-31.63-25.048-31.63-46.054 0-21.013 13.143-38.948 31.65-46.062-4.886-20.466-12.956-39.7-23.663-57.14-6.375 2.837-13.23 4.255-20.082 4.255-12.62 0-25.238-4.812-34.87-14.443-14.864-14.863-18.25-36.846-10.18-54.97C341.767 76.973 322.54 68.895 302.073 64z"/></svg>