<svg xmlns="http://www.w3.org/2000/svg" width="512" height="512" viewBox="0 0 512 512"><path d="M256 48c-75.033 0-144.53 40.658-181.373 106.107l-1.963 3.485 20.915 11.77 1.96-3.484C128.14 107.973 189.62 72 256 72c101.458 0 184 82.542 184 184 0 12.51-1.262 25.007-3.75 37.147l-.802 3.918 23.51 4.82.805-3.92c2.81-13.72 4.237-27.84 4.237-41.965 0-114.69-93.31-208-208-208zM416.46 346.12C383.86 404.026 322.38 440 256 440c-101.458 0-184-82.542-184-184 0-12.512 1.262-25.01 3.75-37.15l.803-3.918-23.51-4.82-.805 3.92C49.426 227.75 48 241.87 48 256c0 114.69 93.31 208 208 208 75.033 0 144.53-40.658 181.373-106.11l1.963-3.484-20.915-11.77-1.96 3.483z"/><path d="M384 256l64 64 64-64M0 256l64-64 64 64"/></svg>