<svg xmlns="http://www.w3.org/2000/svg" width="512" height="512" viewBox="0 0 512 512"><path d="M256 48C141.137 48 48 141.136 48 256s93.137 208 208 208c114.87 0 208-93.138 208-208S370.87 48 256 48zm190.664 208l-.002.145c-22.315-1.72-43.99-6.972-64.62-15.7-17.888-7.565-34.453-17.504-49.48-29.633 20.69-29.5 38.443-61.212 52.825-94.715 37.658 34.853 61.277 84.67 61.277 139.903zm-74.058-150.74c-.28.677-.55 1.355-.835 2.03-13.907 32.882-31.06 63.955-51.285 92.986-1.538-1.45-3.063-2.914-4.563-4.413-19.107-19.107-34.107-41.354-44.583-66.12-8.698-20.563-13.934-42.163-15.672-64.4.11 0 .22-.005.332-.005 43.884 0 84.347 14.91 116.606 39.923zm-132.93-39.216c4.43 58.126 31.043 110.04 71.39 147.312-9.495 12.75-19.61 25.076-30.32 36.965-47.553-50.03-104.814-90.745-168.766-119.13 31.636-36.457 76.853-60.815 127.695-65.146zm41.01 207.796c36.23 40.67 65.48 86.438 87.186 136.453-25.4 18.467-55.51 30.83-88.162 34.898-2.272-47.815-19.52-91.706-47.18-127.07 16.953-13.763 33.038-28.553 48.157-44.28zm-18.647-3.8c-12.705 12.702-25.978 24.66-39.78 35.87-38.736-42.886-93.83-70.707-155.45-73.636 4.07-32.646 16.433-62.75 34.897-88.146 59.195 25.688 112.445 61.947 158.332 107.833 3.322 3.324 6.59 6.69 9.81 10.09-2.573 2.686-5.173 5.35-7.81 7.99zM65.507 248.23c25.238 1.145 49.436 6.797 71.45 16.11 24.767 10.475 47.013 25.475 66.12 44.582 2.254 2.254 4.445 4.555 6.584 6.895-31.414 23.915-65.427 44.05-101.708 60.182-26.632-32.795-42.618-74.563-42.618-120 0-2.604.068-5.19.172-7.77zm53.56 140.296c35.987-16.434 69.81-36.787 100.913-60.52 11.25 14.37 20.523 30.114 27.68 47.036 9.615 22.73 15.014 46.724 16.115 71.45-2.58.104-5.17.172-7.775.172-53.683 0-102.25-22.31-136.933-58.138zM380.81 400.02c-22.49-50.67-52.72-97.14-89.19-137.908 11.1-12.27 21.633-25.06 31.555-38.336 34.17 27.342 76.52 44.885 122.8 48.363-4.29 50.918-28.664 96.207-65.165 127.88z"/></svg>