<svg xmlns="http://www.w3.org/2000/svg" width="512" height="512" viewBox="0 0 512 512"><path d="M255.988 32c-95.515 0-177.054 59.804-209.26 144h34.638c9.396-20.484 22.457-39.35 38.868-55.762C156.497 83.973 204.71 64 255.988 64c51.286 0 99.504 19.973 135.77 56.24C428.03 156.504 448 204.72 448 256c0 51.285-19.973 99.5-56.24 135.765C355.495 428.03 307.276 448 255.99 448c-51.28 0-99.493-19.97-135.755-56.234-16.412-16.412-29.473-35.28-38.87-55.766H46.724C78.93 420.2 160.47 480 255.99 480 379.702 480 480 379.715 480 256c0-123.702-100.297-224-224.012-224z"/><path d="M206.863 323.883l22.627 22.627L320 256l-90.51-90.51-22.628 22.628L258.745 240H32v32h226.745"/></svg>