<svg xmlns="http://www.w3.org/2000/svg" width="512" height="512" viewBox="0 0 512 512"><path d="M256 32C132.288 32 32 132.288 32 256s100.288 224 224 224 224-100.288 224-224S379.712 32 256 32zM145.062 291.696c-1.55 4.952-5.62 8.724-10.693 10.606-3.36 1.246-6.817 1.774-10.237.938-8.866-2.185-13.916-10.907-11.255-19.443 5.1-16.38 14.22-29.995 33.802-37.263s35.265-2.877 49.868 6.15c7.615 4.707 10.03 14.02 4.214 22.123-2.05 2.854-5.02 4.717-8.376 5.963-5.06 1.876-10.584 1.678-14.965-1.036-4.777-2.957-10.642-6.526-19.606-3.2-9.01 3.344-11.102 9.84-12.752 15.162zm200.094 89.758c-2.79 1.946-5.982 2.88-9.144 2.88-5.053 0-10.023-2.387-13.134-6.844C322.703 377.24 304 352 256 352c-47.98 0-66.704 25.24-66.88 25.49-3.11 4.457-8.082 6.845-13.134 6.845-3.16 0-6.354-.935-9.143-2.88-7.246-5.06-9.02-15.032-3.963-22.28C163.986 357.59 190.74 320 256 320c65 0 92.013 37.59 93.12 39.176 5.057 7.247 3.282 17.22-3.964 22.278zm42.873-78.214c-3.42.837-6.88.31-10.237-.938-5.073-1.883-9.143-5.654-10.693-10.606-1.65-5.322-3.742-11.818-12.752-15.16-8.964-3.328-14.83.24-19.607 3.198-4.38 2.714-9.905 2.912-14.964 1.036-3.357-1.246-6.327-3.108-8.376-5.963-5.815-8.104-3.4-17.416 4.214-22.123 14.604-9.027 30.286-13.418 49.868-6.15s28.702 20.884 33.802 37.263c2.66 8.536-2.39 17.26-11.255 19.443z"/></svg>