<svg xmlns="http://www.w3.org/2000/svg" width="512" height="512" viewBox="0 0 512 512"><path d="M178.25 85.534c18.76 22.976 43.908 34.01 77.444 34.572l.27-.106h.268c22.638 0 41.17-4.86 56.653-15.09 7.8-5.155 14.72-11.47 21.03-19.383l104.46 31.367-11.785 32.516-38.743-4.685-37.912-4.59 2.114 38.134L366.175 433H145.824l14.127-254.73 2.107-37.98-37.782 4.428-38.854 4.553-11.766-32.357 104.595-31.38M320 48c-13.988 27.227-30.77 40.223-63.77 40.223C223.724 87.676 205.723 75 192 48L32 96l32 88 64-7.5L112 465h288l-16-288.5 64 7.75L480 96 320 48z"/></svg>