<svg xmlns="http://www.w3.org/2000/svg" width="512" height="512" viewBox="0 0 512 512"><path d="M413.442 332.307c1.528 1.51 2.372 3.562 2.372 5.71 0 2.15-.844 4.203-2.372 5.707L391.62 365.63c-1.576 1.585-3.626 2.37-5.692 2.37-2.07 0-4.138-.785-5.695-2.37l-76.23-76.462-76.23 76.46c-1.558 1.587-3.625 2.372-5.695 2.372-2.066 0-4.117-.785-5.692-2.37l-21.824-21.906c-1.527-1.504-2.373-3.556-2.373-5.707 0-2.148.845-4.2 2.372-5.71L271.098 256l-76.738-76.297c-3.146-3.153-3.146-8.273 0-11.427l21.807-21.92c1.516-1.51 3.552-2.356 5.696-2.356 2.152 0 4.19.847 5.69 2.357l76.45 75.533 76.446-75.533c1.503-1.51 3.54-2.357 5.692-2.357 2.143 0 4.18.847 5.695 2.357l21.807 21.92c3.146 3.152 3.146 8.272 0 11.426L336.904 256l76.538 76.307z"/><path d="M498.94 93.56C490.038 84.653 478.697 80 465.876 80H168c-24.303 0-43.717 9.402-57.706 28.44L0 255.94l110.4 146.528.18.23.184.233c6.904 8.854 14.424 15.7 22.99 20.416C143.884 428.924 155.404 432 168 432h298c26.19 0 46-22.257 46-49V127c0-12.82-4.154-24.537-13.06-33.44zM480 383c0 8.837-5.163 17-14 17H168c-15.167 0-24.333-6.666-32-16.5L40 256l96-128.438c9.5-13 21.167-15.562 32-15.562h297.5c8.837 0 14.5 6.163 14.5 15v256z"/></svg>