<svg xmlns="http://www.w3.org/2000/svg" width="512" height="512" viewBox="0 0 512 512"><path d="M270.93 350.6c-.71-8.18-7.566-14.6-15.93-14.6-7.635 0-14.01 5.352-15.605 12.506l-.007-.002-15.612 92.502c-.503 2.252-.776 4.59-.776 6.994 0 17.673 14.327 32 32 32s32-14.327 32-32c0-2.9-.393-5.705-1.115-8.377L270.93 350.6zM305.904 355.046v-.002l-.004.002M392.875 390.26c-1.718-1.406-3.3-2.88-5.138-3.94l-63.63-47.506c-5.774-3.796-11.996-3.69-16.526.85-4.13 4.143-4.685 10.37-1.677 15.38l48.96 65.764c.945 1.494 2.165 2.8 3.365 4.195 7.802 9.07 25.08 9.588 34.646-.007 9.57-9.587 9.43-27.01 0-34.735zM372.51 335.018v.002M435.428 322.475l-59.52-2.284c-3.892-.557-7.4 2.054-8.066 6.012-.604 3.61 1.347 7.138 4.668 8.816l.013-.04c.04.02.062.007.105.026l57.717 17.756c8.29 1.93 17.656-2.343 17.656-11.648 0-11.784-3.083-17.445-12.572-18.637zM139.222 335.02v-.002h-.002"/><path d="M139.21 334.98l.012.038c3.32-1.68 5.272-5.205 4.668-8.816-.665-3.958-4.175-6.568-8.065-6.01l-59.52 2.283C66.812 323.667 64 329.328 64 341.11c0 9.307 9.098 13.58 17.387 11.65l57.717-17.757c.042-.02.064-.006.105-.024zM187.903 338.807l-63.597 47.43c-1.838 1.058-3.57 2.363-5.137 3.932-9.564 9.566-9.567 25.087-.005 34.65 9.56 9.57 25.055 9.577 34.618.006 1.3-1.3 2.405-2.694 3.352-4.185L206.097 355c3.007-5 2.452-11.213-1.677-15.346-4.527-4.528-11.708-4.892-16.517-.847zM352 128c0-61-72.35-96-96-96 12.017 85.553-101.667 119.667-112 192s48 96 48 96c16.333-59.896 72.386-79.997 109.667-105.667C342.333 186.333 352 160.06 352 128zM352 256c5.03-15.613 4.91-49 0-64-9 18.5-26.287 34.3-47.186 48.69-8.584 5.91-19.86 11.442-28.83 16.796-18.714 11.165-34.984 21.848-47.33 36.4C240.002 311.25 256.975 320 272 320c36 0 64-14.338 80-64z"/><path d="M152.037 160c11.722-15.952 24.856-25.21 38.19-38.362 13.436-13.254 22.077-22.47 27.464-33.173C207.026 67.135 189.843 61.857 176 64c2.333 30.334-29.97 46.567-32 68.657C142.773 146 146.5 156 152.037 160z"/></svg>