<svg xmlns="http://www.w3.org/2000/svg" width="512" height="512" viewBox="0 0 512 512"><path d="M161 160.5h192c-1.688-20-9.73-35.45-27.92-40.356-.447-.12-1.12-.424-1.568-.54-12.004-3.425-21.012-7.654-21.012-20.782V78.227C302.5 52.69 281.976 32 256.49 32c-25.466 0-45.99 20.69-45.99 46.227v20.595c0 13.128-8.592 17.17-20.597 20.593-.447.117-.8.61-1.266.73-18.19 4.905-25.71 20.355-27.637 40.355zm95.99-96.105c7.615 0 13.79 6.195 13.79 13.832 0 7.654-6.175 13.85-13.79 13.85-7.614 0-13.772-6.195-13.772-13.85 0-7.637 6.158-13.832 13.772-13.832z"/><path d="M405.61 63.5H331.5v13.988c0 10.583 9.193 19.012 19.507 19.012h37.212c6.666 0 12.098 5.435 12.44 12.195l.084 327.1c-.322 6.432-5.303 11.546-11.514 12.017l-264.418.03c-6.21-.47-11.15-5.694-11.472-12.125l-.085-327.014c.322-6.76 5.858-12.203 12.506-12.203h37.232c10.313 0 18.507-8.43 18.507-19.012V63.5h-73.132C93.25 63.5 80.5 76.058 80.5 91.575v360.38c0 15.502 12.75 28.545 27.87 28.545h297.24c15.14 0 26.89-13.043 26.89-28.545V91.575c0-15.517-11.75-28.075-26.89-28.075z"/><path d="M144.5 192.5h112v32h-112zM144.5 384.5h160v32h-160zM144.5 320.5h129v32h-129zM144.5 256.5h208v32h-208z"/></svg>