<svg xmlns="http://www.w3.org/2000/svg" width="512" height="512" viewBox="0 0 512 512"><path d="M256 32C141.174 32 46.544 118.404 33.54 229.74 32.534 238.353 32 247.113 32 256c0 1.783.026 3.56.067 5.333C34.9 382.58 134.07 480 256 480c105.255 0 193.537-72.602 217.542-170.454 1.337-5.45 2.474-10.98 3.404-16.58C478.943 280.94 480 268.595 480 256c0-123.712-100.288-224-224-224zm206.585 248.352c-7.265-7.807-13.064-16.09-15.702-20.43-.87-1.47-21.682-35.993-52.828-35.993-27.937 0-42.27 26.268-51.75 43.65-1.416 2.592-2.75 5.04-3.98 7.117-11.565 19.587-27.692 30.608-43.104 29.54-13.585-.958-25.173-11.402-32.627-29.41-9.33-22.54-29.55-46.81-53.69-50.228-11.427-1.62-28.552.865-45.324 21.875-3.294 4.124-6.965 9.612-11.216 15.967-10.572 15.804-26.55 39.686-38.653 41.663-21.02 3.438-35.02-12.596-35.582-13.25l-.487-.58-.586-.478c-.208-.17-15.04-12.417-29.047-33.334 0-.155-.006-.31-.006-.464 0-28.088 5.498-55.326 16.34-80.96 10.476-24.766 25.476-47.012 44.583-66.12s41.354-34.106 66.12-44.582C200.675 53.498 227.913 48 256 48s55.325 5.497 80.958 16.34c24.767 10.475 47.013 25.475 66.12 44.582s34.107 41.354 44.583 66.12C458.504 200.675 464 227.912 464 256c0 8.197-.482 16.318-1.415 24.352z"/></svg>