<svg xmlns="http://www.w3.org/2000/svg" width="512" height="512" viewBox="0 0 512 512"><path d="M368 170.085c0-21.022-.973-88.554-19.308-125.013C344.244 36.228 336.25 32 317 32H195c-19.25 0-27.245 4.197-31.692 13.04C144.973 81.5 144 149.25 144 170.273c0 98 32 100.353 32 180.853 0 39.5-16 71.402-16 99.402 0 27 9 29.473 32 29.473h128c23 0 32-2.535 32-29.535 0-28-16-59.715-16-99.215 0-80.5 32-83.165 32-181.165zM177.602 51.983c.778-1.546 1.34-1.763 2.53-2.295 1.977-.884 6.16-1.688 14.87-1.688h121.997c8.707 0 12.892.803 14.868 1.687 1.19.532 1.752.872 2.53 2.418 8.03 15.967 13.6 42.61 16.105 75.896H161.496c2.505-33.347 8.076-60.05 16.106-76.017zm157.03 410.653c-1.872.74-6.788 1.364-14.632 1.364H192c-7.844 0-12.76-.623-14.64-1.36-.393-.93-1.36-4.165-1.36-12.27 0-10.855 3.016-23.16 6.508-37.333 4.45-18.06 9.492-38.557 9.492-61.943 0-40.997-7.993-63.802-15.724-85.842C168.274 242.438 160 218.838 160 170.155c0-9.025.19-17.756.558-26.155h190.886c.365 8.376.557 17.083.557 26.085 0 48.688-8.275 72.302-16.28 95.17-7.727 22.078-15.72 44.894-15.72 85.886 0 23.39 5.044 43.823 9.494 61.857 3.49 14.15 6.507 26.368 6.507 37.222 0 8.135-.976 11.493-1.37 12.416z"/></svg>