<svg xmlns="http://www.w3.org/2000/svg" width="512" height="512" viewBox="0 0 512 512"><path d="M391.016 382.994l-.15-.124L323.7 272H188.554l-66.55 110.855-.165.042-.178.302c-5.46 8.333-8.32 18.772-8.32 24.716 0 12.945 4.482 16.848 5.955 18.088 4.46 3.76 12.667 5.996 23.73 5.996H368.96c10.278 0 18.232-2.52 23.007-6.85 4.205-3.814 6.454-9.956 6.683-17.795.172-5.904-2.093-15.968-7.476-24.18l-.158-.18z"/><path d="M436.912 370.44L320 175V48h16V32H176v16h16v127L76.125 370.44c-8.41 15.828-12.51 31.374-12.097 45.56 1.06 36.51 28.7 64 65.065 64H384.98c36.293 0 62.133-27.598 62.994-64 .338-14.244-2.607-29.65-11.062-45.56zM208 64h48v16h-48V64zm0 48h32v16h-32v-16zm0 48h48v16h-48v-16zm-16.74 48H240v16h-58.18l9.44-16zm223.38 200.04c-.706 24.25-15.877 39.96-45.68 39.96H143.027c-29.862 0-45.682-12.25-45.682-39.834 0-9.455 4.03-23.008 10.937-33.55L179.49 256h153.228l71.836 118.717c6.943 10.595 10.362 23.836 10.086 33.324z"/></svg>