<svg xmlns="http://www.w3.org/2000/svg" width="512" height="512" viewBox="0 0 512 512"><path d="M384 176.905V128C384 57.308 326.692 0 256 0S128 57.308 128 128v48.906C88.725 212.062 64 263.14 64 320c0 106.04 85.962 192 192 192 106.04 0 192-85.96 192-192 0-56.86-24.725-107.938-64-143.095zM160 128c0-52.935 43.065-96 96-96s96 43.065 96 96v25.692C323.76 137.355 290.973 128 256 128s-67.76 9.355-96 25.693V128zm96 352c-88.366 0-160-71.634-160-160s71.634-160 160-160 160 71.634 160 160-71.634 160-160 160z"/><path d="M256 176c-79.53 0-144 64.472-144 144s64.47 144 144 144 144-64.472 144-144-64.47-144-144-144zm122.533 177.487l-24.12-7.896-3.926 12.19 24.16 7.913c-3.66 9.776-8.46 18.965-14.25 27.41l-10.56-7.738-3.74 5.184 10.554 7.733c-6.128 8.047-13.188 15.324-21.027 21.682l-14.982-20.787-10.283 7.532 14.976 20.776c-8.48 5.556-17.657 10.12-27.398 13.532l-3.96-12.294-6.05 1.982 4.925 12.262C283.335 445.77 273 447.498 264 448v-19h-16v19c-11-.506-19.705-2.244-29.243-5.065l3.948-11.206-6.25-2.107-3.54 11.224c-9.556-3.393-18.53-7.895-26.863-13.36l14.997-20.773-10.27-7.534-14.978 20.787c-7.81-6.333-14.84-13.575-20.953-21.583l9.555-6.998-3.97-5.507-9.563 7c-5.718-8.382-10.47-17.498-14.093-27.187l24.16-7.914-3.925-12.19-24.12 7.898c-2.49-9.43-3.955-18.488-4.26-29.487H134v-6.804l-5.993-.002c.223-10.606.672-20.88 3.266-30.682l24.92 7.9 4.348-12.188-23.965-7.914c3.585-9.57 8.36-18.583 13.985-26.88l10.34 7.534 3.758-5.184-10.292-7.545c6.22-8.253 13.424-15.707 21.434-22.197l14.984 20.787 10.284-7.536-14.975-20.775c8.405-5.514 17.512-10.05 27.16-13.45l3.955 12.248 6.044-1.98-4.62-12.23C228.21 194.257 237 192.507 248 192v19h16v-19c9 .498 19.16 2.198 28.585 4.95l-4.76 13.28 6.18 2.107 4.175-13.312c9.696 3.408 18.778 7.957 27.208 13.49l-15.002 20.776 10.267 7.536 14.975-20.787c7.935 6.43 15.07 13.81 21.255 21.976l-11.3 8.268 3.976 5.512 11.275-8.26c5.595 8.27 10.247 17.243 13.816 26.775l-24.164 7.915 3.928 12.188 24.12-7.9c2.586 9.802 5.25 20.075 5.47 30.683l-8.004-.004V324h6.79c-.304 11-1.77 20.057-4.257 29.487z"/><circle cx="256" cy="320" r="81"/></svg>