<svg xmlns="http://www.w3.org/2000/svg" width="512" height="512" viewBox="0 0 512 512"><path d="M96.298 265.705C101.315 349.55 170.888 416 255.988 416c37.957 0 72.818-13.227 100.25-35.31C317.23 369.553 274 353.92 229.562 334.616c-48.83-21.213-94.605-44.94-133.264-68.912zM107.38 196.63c39.912 27.11 92.07 55.13 147.68 79.286 43.59 18.938 87.113 34.555 125.86 45.164 6.495 1.78 12.833 3.406 18.987 4.883 1.685-3.462 3.25-6.994 4.688-10.59 7.34-18.36 11.386-38.394 11.386-59.373 0-3.26-.108-6.493-.3-9.705C410.66 162.45 341.09 96 255.988 96c-37.956 0-72.817 13.227-100.248 35.31-18.296 14.73-33.284 33.4-43.67 54.727-1.687 3.462-3.25 6.995-4.69 10.592z"/><path d="M429.667 284.53c-1.256 11.563-2.377 13.628-5.89 24.696 16.877 12.04 31.03 23.706 41.136 33.938 3.285 3.328 5.875 6.225 7.912 8.702-1.684.084-3.557.133-5.63.133-21.887 0-54.027-5.5-90.502-15.49-39.467-10.805-83.73-26.684-128.008-45.92-58.93-25.6-114.158-55.54-155.51-84.306-19.08-13.275-35.027-26.226-46.113-37.45-3.285-3.328-5.875-6.225-7.912-8.702 1.683-.084 3.556-.133 5.632-.133 15.308 0 35.637 2.693 58.952 7.728 5.825-10.004 6.98-12.7 14.663-21.41C92.663 137 66.625 130.523 44.784 128 20.38 125.182 4.444 133.52.8 145.14-10.274 180.457 95 258.718 235.936 319.942 330.498 361.022 417.104 384 467.194 384c24.565 0 40.338-5.52 43.982-17.14 6.34-20.217-24.21-46.86-81.51-82.33z"/></svg>