<svg xmlns="http://www.w3.org/2000/svg" width="512" height="512" viewBox="0 0 512 512"><path d="M399.283 283.797c-5.1-16.38-14.22-29.995-33.802-37.263s-35.264-2.877-49.867 6.15c-7.615 4.707-10.03 14.02-4.214 22.123 2.048 2.854 5.018 4.717 8.375 5.963 5.06 1.876 10.584 1.678 14.965-1.036 4.778-2.957 10.644-6.526 19.607-3.2 9.01 3.344 11.103 9.84 12.752 15.162 1.55 4.952 5.62 8.724 10.692 10.606 3.357 1.246 6.816 1.774 10.236.938 8.867-2.184 13.916-10.907 11.255-19.443zM196.55 252.685c-14.604-9.027-30.287-13.418-49.87-6.15s-28.7 20.884-33.8 37.263c-2.662 8.536 2.388 17.26 11.254 19.443 3.42.838 6.878.31 10.236-.937 5.073-1.883 9.143-5.654 10.693-10.606 1.65-5.322 3.743-11.818 12.752-15.16 8.964-3.328 14.83.24 19.607 3.198 4.38 2.714 9.907 2.912 14.965 1.036 3.357-1.245 6.327-3.107 8.376-5.962 5.815-8.105 3.4-17.416-4.214-22.123z"/><path d="M256 32C132.288 32 32 132.288 32 256s100.288 224 224 224 224-100.288 224-224S379.712 32 256 32zm135.765 359.765C355.5 428.028 307.285 448 256 448s-99.5-19.972-135.765-56.235C83.972 355.5 64 307.285 64 256s19.972-99.5 56.235-135.765C156.5 83.972 204.715 64 256 64s99.5 19.972 135.765 56.235C428.028 156.5 448 204.715 448 256s-19.972 99.5-56.235 135.765z"/><path d="M349.12 359.176C348.012 357.59 321 320 256 320c-65.26 0-92.014 37.59-93.12 39.176-5.058 7.247-3.284 17.22 3.962 22.278 2.79 1.946 5.982 2.88 9.143 2.88 5.052 0 10.024-2.387 13.135-6.844.176-.25 18.9-25.49 66.88-25.49 48 0 66.703 25.24 66.88 25.49 3.11 4.457 8.08 6.845 13.133 6.845 3.16 0 6.354-.935 9.144-2.88 7.245-5.06 9.02-15.032 3.962-22.28z"/></svg>