<svg xmlns="http://www.w3.org/2000/svg" width="512" height="512" viewBox="0 0 512 512"><g fill="#010101"><path d="M254.7 101.3c-.6 1-1.2 2-1.7 3.1 1.8-3.5 4.3-6.5 7.4-8.7-2.1 1.3-4.1 3.1-5.7 5.6-.6 1 1.6-2.5 0 0z"/><path d="M426.3 396c-6.7-4-13.2-11-12-18.8 2.3-15.3 2.5-21.5-.2-25.8-1.9-3.2-5.5-5-8.6-5.8 2-2.5 3.1-5.4 3.8-10.9 1.842-14.168-3.24-30.67-6.61-44.243-4.445-17.9-10.32-34.014-20.432-49.522-16.49-25.288-37.253-46.804-51.857-73.435-9.7-29-4.3-47.1-4.8-66.2C324.7 64 298.7 32 261 32h-14c-37.5 0-58 26.9-58 60 .697 16.666 1.352 33.333 2 50 .77 19.756 1.98 37.667-8 55.3-7.033 12.488-19.57 22.43-28.592 33.478-9.525 11.665-13.06 23.67-17.86 37.62-5.986 17.4-21.274 30.905-24.885 48.928-1.658 8.27 2.726 17.857-.83 24.693-3.698 7.108-.813 14.468-2.833 21.68-3.505 11.73-20.73 10.73-30.215 11.51-17.602 1.442-11.05 17.987-7.843 29.7 5.598 20.435-19.54 42.078 11.032 50.47 13.99 3.84 28.586 5.13 42.727 8.32 13.982 3.155 26.918 8.613 40.397 13.263 10.47 3.61 20.262 4.146 30.323-1.232 10.982-5.87 18.947-15.082 31.69-17 24.708-3.715 54.83-4.168 79.374.63 7.507 1.47 10.075 6.526 14.905 11.767 8.144 8.838 21.513 10.125 32.793 8.22 11.89-2.01 20.846-9.466 29.686-17.112 12.525-10.835 26.136-17.996 40.79-25.547 7.44-3.833 22.178-9.388 24.16-18.903 2.33-11.212-14.178-17.402-21.52-21.785zM202 451.3c-1.3 13-13.9 20.3-25.4 19.3-19.502-1.65-37.86-12.237-57.164-15.75-9.393-1.71-47.35-3.173-46.943-17.08.215-7.36 5.75-11.665 7.567-18.414 2.81-10.45-5.753-19.932-6.32-30.16-.447-8.08 10.73-7.607 16.288-8.053 8.76-.702 19.157-2.012 23.572-11.043 1.6-3.3-.5-15 1.9-21.8 3.527-10.155 15.49-8.95 23.3-4.9 17.762 9.068 28.943 35.547 38.533 51.822 9.725 16.506 26.712 35.62 24.667 56.078zm116.3-65.6c2.29 11.787 4.224 24.387 1.7 36.3-2.016 9.516-8.562 15.614-12.7 24-2.2-6.8 11.3-16.7 9.8-33.7-.042-.475-.947-10.882-1.036-10.834-1.98 1.082-3.825 5.075-5.304 6.73-4.81 5.383-10.77 9.658-16.73 13.677-13.796 9.306-29.22 15.058-45.83 16.627-21 2-38-10.5-38-10.5 2.518 8.305 8.993 21 1.1 28.3 1.744-15.648-4.875-28.06-11.6-41.7 46.375-24.64-41.362-64.397-53-79.8-10.475-13.896-5.552-31.83-2.7-43.5-3.442 13.775-3.958 41.956 14 46.8 7.923 2.17 5.606-37.07 5.985-41.463 1.58-18.312 7.72-35.997 18.343-51.015 3.4-4.806 1.863-9.533 2.673-15.322 1.694-10.668 7.296-20.547 13.49-29.225 5.168-7.243 1.734-12.618 3.013-21.055.727-4.795 5.118 3.193 5.798 4.28 4 6.5 16.7 22.7 24.7 22 13.278-1.162 24.693-15.94 36.016-22.047 3.59-1.937 14.41-5.242 15.866-9.632 1.768-5.33-12.666-.16-14.114.584-10.782 5.535-31.018 21.448-43.867 15.295-8.76-4.196-10.69-14.995-17.2-20.5 15.4 13.6 21.5 10.5 27.6 9.1 9.666-2.183 18.798-6.487 27.8-10.5 4.218-1.88 20.108-4.042 22.302-8.7 2.745-5.835-5.05-6.727-8.068-3.58-6.25 6.514-15.853 8.98-24.097 11.786-18.885 6.427-37.644 9.13-51.835-8.607-8.354-10.213 15.558-22.505 22.2-28.8 0 0 1-7.2-.6-12.7-1.9-6.5-7.8-9.3-11.9-8.1-4.1 1.1-8 5.5-6.8 14.8 1 8.3 7 11 7 11s-2.7 3.5-5.2 4.7c0 0-.8-.3-3.5-6.3s-6.6-19.5-.3-31.1c6.3-11.6 19.6-5.2 23.8 3.8 3.9 8.3 2.4 22.7 2.4 22.7 3.358-.844 6.835-1.3 10.3-1.3 4.242 0 6.814 4.562 10.6 4.8-.635 0-.564-18.125-.233-20.08 1.098-6.49 4.11-13.618 9.932-17.22 16.087-11.492 34.6 3.915 34.6 21.2.024 4.485-.137 9.214-1.2 13.6-.658 2.636-1.58 8.468-5.113 9.176-1.146.23-10.684-.43-7.986-3.277 12.807-12.813-1.822-38.208-17.4-24.5-5.6 4.198-5.483 13.832-4.8 20 1.097 9.14 20.51 11.54 26.85 13.78 8.225 2.902 7.944 9.625 6.68 17.115-1.9 11.26-2.815 18.792 4.38 28.214 7.345 9.615 12.93 20.085 15.916 31.877 1.483 5.86 1.665 10.843 5.62 15.57 5.984 7.15 10.62 14.805 13.292 23.817 5.225 17.62 6.513 35.422 6.162 53.625-.5 8.198-2.1 15 8.3 9.698 4-2 6.5-2.9 11-3.7 3.1-6.3 4.4-18.3 4.5-24.3.2-13.5-.3-41.5-27.7-71.5 0 0 28.5 21.7 33 62 2.5 22.3-2 34.4-2 34.4 5.3 1.3 10.8 5.3 13.6 9.8-.132-.22 1.04 1.748 1.18 1.864-9.81-8.17-31.708-12.86-39.68.236-2 3.3-3.1 7.6-3.2 11.7-7.1-1.2-12.398 0-16.8 4.9C313.5 358.1 316.3 375.3 318.3 385.7c2 10.3-2-10.4 0 0zm-97.7-260.8c-.2-4.9-2.1-9-4.7-10.8.3-.3.8-.7 1.7-.4 1.4.4 3.5 2.7 4.3 6.3.7 2.9.4 7.7-1.4 7.7-.002-.934.03-1.867.1-2.8-.2-4.9 0 .9 0 0zm54.7-12c.4-.3 1.1-.6 2.3-.3 1.8.4 4.4 2.8 5.3 6.2.7 2.8.1 7.4-2.2 7.3-.004-.903.063-1.803.2-2.7-.1-4.6-2.3-8.6-5.6-10.5.4-.3 3.3 1.9 0 0zm137.1 320c-17.504 7.553-31.304 19.968-47.117 30.19-13.824 8.937-38.156 8.313-40.022-12.88-1.564-17.775 4.185-35.287 1.84-53.356-1.586-12.24-8.533-28.906-2.3-40.854 2.7-5.1 8.1-5.5 12.5-4 3.193 13.267 13.932 23.6 28 23.6 17.03 0 23.542-14.008 34-24.5 3.4.2 7.4 1.1 8.8 4.8 2.3 5.8-1.9 17.5-1.8 22.3.3 15.7 9 19.2 26.4 29 15.3 8.8 4.2 15.1-20.3 25.7-24.1 10.4 24.5-10.6 0 0z"/></g></svg>